<svg width="212" height="35" viewBox="0 0 212 35" version="1.1" xmlns="http://www.w3.org/2000/svg"><title>COU12001_logo_rgb</title><g id="Page-1" stroke="none" stroke-width="1" fill="none" fill-rule="evenodd"><g id="COU12001_logo_rgb"><path id="Fill-1" fill="#36A1CE" d="M27.21 18.387c-.014-.613-.09-1.223-.234-1.828-.013-.055-.035-.103-.05-.156.014.053.037.1.05.155.145.604.22 1.214.233 1.827"/><path id="Fill-2" fill="#36A1CE" d="M32.454 20.592c-.053.384-.116.768-.198 1.152.082-.384.145-.768.198-1.152"/><path id="Fill-3" fill="#36A1CE" d="M26.866 21.034l-.02.057.02-.056"/><path id="Fill-4" fill="#36A1CE" d="M32.49 20.326c.093-.78.123-1.56.088-2.337.035.776.004 1.556-.09 2.336"/><path id="Fill-5" fill="#36A1CE" d="M32.446 16.588h-.005c.01.054.016.11.023.164-.007-.054-.008-.11-.017-.164"/><path id="Fill-6" fill="#36A1CE" d="M32.167 22.1l.068-.274c-.02.093-.047.182-.07.274h.002"/><path id="Fill-7" fill="#36A1CE" d="M32.463 16.752c.046.342.083.683.104 1.025-.02-.342-.058-.683-.104-1.025"/><path d="M30.365 21.797c-1.274-.018-2.548-.01-3.823-.01-.558 1.04-1.486 1.747-2.818 2.055-.632.147-1.293.22-1.942.232-1.806.03-3.613.015-5.42.01-1.357-.006-2.663.246-3.925.74-1.874.738-3.408 1.925-4.688 3.554-1.292-1-2.06-2.277-2.122-3.848-.084-2.17-.066-4.35-.01-6.522.07-2.65 1.81-4.46 4.465-4.656 1.336-.1 2.682-.085 4.023-.08h.278-.01c-.297-1.816-.256-3.633.164-5.433 1.882-.008 3.764.01 5.646.037-.16.31-.297.636-.383.996-.29 1.208-.3 2.443-.093 3.664.045.27.11.522.186.764h-.013c1 .013 2 .03 2.998.06 2.06.065 3.546 1.245 4.046 3.04 1.163.003 2.327 0 3.49-.004.69-.002 1.364.063 2.027.19-.08-.542-.19-1.084-.34-1.624-1.006-3.61-3.42-5.796-7.006-6.674-1.104-.27-2.27-.38-3.412-.392-3.773-.045-7.552-.13-11.32.024-4.03.164-7.252 1.878-9.12 5.643C.508 15.047.206 16.647.19 18.29c-.022 2.22-.082 4.45.058 6.663.212 3.336 1.798 5.98 4.502 7.93 1.768 1.273 3.76 1.927 5.947 1.972h.263c.172-2.965 2.048-4.615 3.85-5.134.515-.147 1.065-.228 1.6-.236.875-.013 1.75-.01 2.624-.006 1.013.005 2.026.01 3.038-.013 2.833-.06 5.414-.846 7.52-2.838 1.324-1.25 2.14-2.792 2.573-4.527-.066-.022-.132-.046-.2-.065-.513-.148-1.064-.23-1.6-.238" id="Fill-8" fill="#36A1CE"/><path id="Fill-9" fill="#F7C02D" d="M31.345 16.434c-.295-.025-.593-.038-.893-.038h-.02.02c.062 0 .124 0 .185.002H30.692c.22.006.436.018.653.036"/><path id="Fill-11" fill="#F7C02D" d="M30.365 21.797c-.644-.01-1.29-.012-1.934-.012-.368 0-.736 0-1.103.002l1.106-.002c.644 0 1.288.003 1.932.012"/><path id="Fill-16" fill="#F7C02D" d="M14.373 13.27c-.02-.124-.035-.25-.052-.373.018.124.033.25.053.373"/><path id="Fill-17" fill="#2BB8CE" d="M14.374 13.272v-.002.002"/><g id="Group-21"><path id="Fill-18" fill="#2BB8CE" d="M19.8 8.873c.046-.19.107-.37.177-.543-.067.176-.13.353-.176.543"/><path d="M35.994 27.17h-.178c-.166-2.856-1.91-4.49-3.65-5.07.003-.006.004-.012.006-.02.028-.11.06-.222.084-.336.37-1.72.447-3.445.19-5.156.642.124 1.273.308 1.893.55 1.873.737 3.408 1.925 4.688 3.554 1.29-1 2.06-2.278 2.12-3.85.085-2.17.066-4.347.01-6.52-.07-2.65-1.81-4.46-4.464-4.657-.954-.07-1.914-.083-2.872-.083-.384 0-.768.002-1.15.003-2.925.01-5.85 0-8.773.09-1.72.053-3.033.887-3.716 2.202l-.593-.008c-1.456-.02-2.914-.038-4.37-.038h-.684c.042-.185.088-.37.14-.557 1.006-3.61 3.42-5.795 7.006-6.673 1.105-.27 2.272-.38 3.412-.393 2.154-.026 4.31-.065 6.464-.065 1.62 0 3.24.022 4.857.088 4.03.165 7.25 1.88 9.118 5.643.736 1.485 1.038 3.085 1.054 4.727.02 2.22.082 4.45-.06 6.664-.21 3.336-1.797 5.978-4.5 7.928-1.768 1.275-3.762 1.928-5.948 1.973h-.086M14.404 8.487l.044-.233c.028-.138.058-.276.09-.414.28-.002.562-.002.844-.002 1.403 0 2.806.013 4.21.03-1.404-.017-2.807-.03-4.21-.03h-.844c-.05.217-.094.432-.134.648" id="Fill-20" fill="#F7C02D"/></g><path id="Fill-22" fill="#2BB8CE" d="M32.167 22.1l.005-.02-.005.02"/><path d="M25.84 21.788c-.378 0-.757 0-1.136-.01-2.832-.06-5.414-.846-7.52-2.837-1.414-1.334-2.258-3-2.663-4.882-.056-.262-.104-.524-.146-.786h.01-.01c1.84.006 3.68.007 5.52.03h-.014.013c.468 1.487 1.51 2.472 3.16 2.854.632.146 1.292.22 1.94.23.645.012 1.288.013 1.93.014l.01.025c.013.045.03.087.043.134.053.222.097.446.132.67.154.993.13 1.998-.038 2.993-.1.588-.28 1.106-.528 1.565h-.7m1.015-.73l-.012.033.012-.032.01-.024-.01.024m.12-4.5c-.003-.005-.004-.01-.006-.016l.006.017m-.005-.018v-.002.002" id="Fill-24" fill="#F7C02D"/><path id="Fill-25" fill="#2BB8CE" d="M27.108 17.23c-.035-.224-.08-.448-.132-.67-.012-.048-.03-.09-.044-.135.012.04.028.076.04.115v.002c0 .006.002.01.004.017.053.222.097.446.132.67"/><path d="M26.927 16.4h-.003.003m-7.034-3.1h-.013.013m-5.51-.028h-.01.01" id="Fill-27" fill="#2BB8CE"/><path id="Fill-29" fill="#2BB8CE" d="M32.44 16.587c-.13-.025-.263-.048-.395-.07l-.17-.023c.19.026.378.057.566.093"/><path d="M26.924 16.4c.015.055.038.104.052.16.29 1.208.3 2.443.094 3.663-.1.588-.28 1.106-.528 1.565 1.275 0 2.55-.01 3.823.01.536.007 1.087.09 1.6.237.068.02.135.043.202.065.03-.118.063-.235.09-.356.37-1.72.446-3.445.19-5.156-.665-.13-1.342-.194-2.033-.192-1.163.005-2.327.008-3.49.004" id="Fill-52" fill="#DF592A"/><path d="M20.184 7.876c-1.882-.025-3.764-.044-5.646-.037-.42 1.8-.46 3.615-.164 5.432 1.84.006 3.68.007 5.52.03-.077-.243-.142-.496-.187-.765-.207-1.22-.196-2.456.094-3.664.087-.36.224-.687.384-.997" id="Fill-53" fill="#DF592A"/><path d="M56.462 21.246c-2.088 0-3.378-1.498-3.378-3.936 0-2.438 1.29-3.935 3.378-3.935 1.05 0 1.704.27 2.533 1.18l-.557.51c-.654-.734-1.164-.973-1.976-.973-.86 0-1.578.35-2.04 1.02-.382.557-.526 1.163-.526 2.198 0 1.036.144 1.64.526 2.2.462.67 1.18 1.02 2.04 1.02.812 0 1.322-.24 1.976-.973l.557.51c-.83.908-1.482 1.18-2.533 1.18" id="Fill-30" fill="#36A1CE"/><path d="M65.065 14.745c-.415-.414-.972-.653-1.594-.653-.62 0-1.178.24-1.592.653-.638.637-.685 1.673-.685 2.565 0 .893.047 1.928.685 2.566.414.414.972.653 1.593.653.623 0 1.18-.24 1.595-.654.637-.638.685-1.673.685-2.566 0-.892-.048-1.928-.685-2.565zm.542 5.657c-.542.542-1.275.844-2.136.844-.86 0-1.592-.302-2.134-.844-.812-.813-.956-1.992-.956-3.092s.144-2.278.956-3.09c.542-.543 1.275-.845 2.135-.845.862 0 1.595.302 2.137.844.812.812.956 1.99.956 3.09 0 1.1-.144 2.28-.956 3.092z" id="Fill-31" fill="#36A1CE"/><path d="M73.89 21.15v-.908c-.573.67-1.338 1.004-2.262 1.004-.86 0-1.546-.255-2.04-.733-.51-.494-.797-1.227-.797-2.135V13.47h.814v4.765c0 1.48.75 2.294 2.12 2.294s2.166-.846 2.166-2.295V13.47h.813v7.68h-.813" id="Fill-32" fill="#36A1CE"/><path d="M82.573 21.15v-4.764c0-1.48-.75-2.294-2.12-2.294s-2.167.844-2.167 2.294v4.764h-.812v-7.68h.812v.91c.574-.67 1.34-1.005 2.263-1.005.86 0 1.545.254 2.038.732.51.495.797 1.228.797 2.136v4.907h-.812" id="Fill-33" fill="#36A1CE"/><path d="M88.42 21.246c-1.34 0-2.328-.35-3.108-1.1l.557-.557c.605.636 1.418.94 2.517.94 1.498 0 2.31-.527 2.31-1.562 0-.797-.462-1.195-1.466-1.29l-1.273-.113c-1.546-.127-2.31-.812-2.31-2.007 0-1.323 1.083-2.183 2.756-2.183 1.05 0 2.023.302 2.693.812l-.542.542c-.59-.43-1.307-.654-2.15-.654-1.26 0-1.96.54-1.96 1.482 0 .797.477 1.195 1.56 1.29l1.243.112c1.275.11 2.247.51 2.247 2.008 0 1.4-1.195 2.278-3.075 2.278" id="Fill-34" fill="#36A1CE"/><path d="M98.232 15.382c-.334-.796-1.115-1.29-1.99-1.29-.878 0-1.658.494-1.993 1.29-.192.478-.24.718-.272 1.45h4.525c-.032-.732-.08-.972-.27-1.45zm-4.254 2.104c0 1.943.876 3.027 2.502 3.027.908 0 1.466-.27 2.12-.924l.604.477c-.78.78-1.498 1.18-2.772 1.18-2.12 0-3.266-1.37-3.266-3.937 0-2.47 1.147-3.935 3.075-3.935 1.913 0 3.076 1.402 3.076 3.744v.366h-5.338z" id="Fill-35" fill="#36A1CE"/><path d="M103.44 21.15c-1.24 0-1.847-.796-1.847-1.99V9.805h.813v9.337c0 .86.27 1.29 1.18 1.29h.557v.717h-.702" id="Fill-36" fill="#36A1CE"/><path d="M107.695 21.15c-1.243 0-1.85-.796-1.85-1.99V9.805h.814v9.337c0 .86.27 1.29 1.178 1.29h.558v.717h-.7" id="Fill-37" fill="#36A1CE"/><path d="M110.132 13.47h.812v7.68h-.812v-7.68zm-.096-3.664h1.004v1.003h-1.004V9.805z" id="Fill-38" fill="#36A1CE"/><path d="M118.815 21.15v-4.764c0-1.48-.75-2.294-2.12-2.294s-2.166.844-2.166 2.294v4.764h-.814v-7.68h.813v.91c.572-.67 1.337-1.005 2.26-1.005.862 0 1.547.254 2.04.732.51.495.798 1.228.798 2.136v4.907h-.813" id="Fill-39" fill="#36A1CE"/><path d="M124.837 14.092c-1.88 0-2.168 1.625-2.168 3.218 0 1.594.286 3.22 2.167 3.22 1.88 0 2.166-1.626 2.166-3.22 0-1.593-.286-3.218-2.166-3.218zm-.16 10.82c-1.147 0-1.72-.304-2.533-1.02l.54-.542c.607.54 1.02.844 1.993.844 1.61 0 2.326-1.147 2.326-2.66V20.16c-.67.893-1.418 1.084-2.278 1.084-.797 0-1.482-.27-1.88-.67-.78-.78-.988-2.055-.988-3.266 0-1.21.207-2.485.987-3.266.4-.398 1.084-.67 1.88-.67.86 0 1.61.192 2.28 1.084v-.988h.812v8.11c0 1.93-1.147 3.33-3.14 3.33z" id="Fill-40" fill="#36A1CE"/><path d="M135.096 17.486h-2.39c-1.322 0-1.96.525-1.96 1.545s.62 1.5 2.008 1.5c.7 0 1.37-.065 1.912-.59.287-.27.43-.75.43-1.466v-.988zm0 3.664v-.764c-.653.653-1.26.86-2.342.86-1.132 0-1.77-.19-2.263-.7-.35-.367-.557-.925-.557-1.5 0-1.4 1.004-2.213 2.677-2.213h2.486v-.86c0-1.228-.606-1.88-2.167-1.88-1.084 0-1.642.27-2.12.97l-.59-.51c.654-.907 1.466-1.178 2.71-1.178 2.023 0 2.978.908 2.978 2.517v5.258h-.812z" id="Fill-41" fill="#DF592A"/><path d="M140.656 21.15c-1.21 0-1.85-.844-1.85-2.007v-5.067h-1.05v-.606h1.05v-2.454h.814v2.454h1.736v.606h-1.736v5.083c0 .796.366 1.274 1.18 1.274h.556v.716h-.7" id="Fill-42" fill="#DF592A"/><path d="M148.574 21.15v-4.764c0-1.48-.75-2.294-2.12-2.294s-2.167.844-2.167 2.294v4.764h-.812V9.806h.812v4.573c.574-.67 1.34-1.005 2.263-1.005 1.753 0 2.836 1.1 2.836 2.868v4.907h-.812" id="Fill-43" fill="#F1B02C"/><path d="M156.3 14.745c-.414-.414-.972-.653-1.594-.653-.62 0-1.18.24-1.593.653-.638.637-.685 1.673-.685 2.565 0 .893.047 1.928.685 2.566.414.414.972.653 1.593.653.622 0 1.18-.24 1.594-.654.637-.638.685-1.673.685-2.566 0-.892-.048-1.928-.685-2.565zm.54 5.657c-.54.542-1.273.844-2.134.844-.86 0-1.593-.302-2.135-.844-.81-.813-.955-1.992-.955-3.092s.144-2.278.956-3.09c.543-.543 1.276-.845 2.136-.845.86 0 1.594.302 2.135.844.814.812.957 1.99.957 3.09 0 1.1-.143 2.28-.956 3.092z" id="Fill-44" fill="#F1B02C"/><path d="M170.32 21.15v-4.764c0-1.48-.75-2.294-2.12-2.294-1.322 0-2.166.844-2.166 2.15v4.908h-.813v-4.764c0-1.48-.748-2.294-2.118-2.294-1.37 0-2.167.844-2.167 2.294v4.764h-.812v-7.68h.812v.91c.558-.655 1.354-1.005 2.28-1.005 1.13 0 2.006.494 2.468 1.402.574-.908 1.482-1.402 2.613-1.402.845 0 1.546.27 2.024.732.51.495.797 1.228.797 2.136v4.907h-.797" id="Fill-45" fill="#F1B02C"/><path d="M178.412 15.382c-.335-.796-1.116-1.29-1.992-1.29-.877 0-1.657.494-1.992 1.29-.19.478-.24.718-.27 1.45h4.524c-.03-.732-.08-.972-.27-1.45zm-4.254 2.104c0 1.943.875 3.027 2.5 3.027.91 0 1.467-.27 2.12-.924l.606.477c-.78.78-1.498 1.18-2.773 1.18-2.118 0-3.265-1.37-3.265-3.937 0-2.47 1.147-3.935 3.075-3.935 1.912 0 3.075 1.402 3.075 3.744v.366h-5.337z" id="Fill-46" fill="#F1B02C"/><path d="M187.986 21.246c-2.088 0-3.378-1.498-3.378-3.936 0-2.438 1.29-3.935 3.378-3.935 1.05 0 1.705.27 2.534 1.18l-.558.51c-.654-.734-1.163-.973-1.976-.973-.86 0-1.578.35-2.04 1.02-.382.557-.525 1.163-.525 2.198 0 1.036.144 1.64.526 2.2.462.67 1.18 1.02 2.04 1.02.813 0 1.322-.24 1.976-.973l.558.51c-.83.908-1.483 1.18-2.534 1.18" id="Fill-48" fill="#CCCDC9"/><path d="M196.59 14.745c-.415-.414-.973-.653-1.594-.653-.622 0-1.18.24-1.593.653-.638.637-.686 1.673-.686 2.565 0 .893.048 1.928.686 2.566.413.414.97.653 1.593.653.62 0 1.18-.24 1.593-.654.637-.638.684-1.673.684-2.566 0-.892-.047-1.928-.685-2.565zm.54 5.657c-.54.542-1.274.844-2.134.844-.86 0-1.593-.302-2.135-.844-.812-.813-.955-1.992-.955-3.092s.143-2.278.956-3.09c.543-.543 1.276-.845 2.136-.845.86 0 1.593.302 2.135.844.813.812.957 1.99.957 3.09 0 1.1-.144 2.28-.956 3.092z" id="Fill-49" fill="#CCCDC9"/><path d="M210.61 21.15v-4.764c0-1.48-.75-2.294-2.12-2.294-1.322 0-2.167.844-2.167 2.15v4.908h-.812v-4.764c0-1.48-.748-2.294-2.12-2.294-1.37 0-2.166.844-2.166 2.294v4.764h-.812v-7.68h.812v.91c.558-.655 1.355-1.005 2.28-1.005 1.13 0 2.007.494 2.47 1.402.572-.908 1.48-1.402 2.612-1.402.844 0 1.545.27 2.024.732.51.495.796 1.228.796 2.136v4.907h-.796" id="Fill-50" fill="#CCCDC9"/></g></g></svg>