<svg width="1190" height="197" viewBox="0 0 1190 197" version="1.1" xmlns="http://www.w3.org/2000/svg"><title>COU12001_logo_rgb</title><g id="Page-1" stroke="none" stroke-width="1" fill="none" fill-rule="evenodd"><g id="COU12001_logo_rgb"><path d="M153.15 103.49c-.075-3.446-.5-6.884-1.315-10.285-.074-.304-.198-.576-.283-.873.083.3.21.57.282.873.816 3.4 1.24 6.84 1.315 10.286" id="Fill-1" fill="#36A1CE"/><path d="M182.67 115.903c-.298 2.16-.65 4.323-1.116 6.484.465-2.16.818-4.323 1.117-6.484" id="Fill-2" fill="#36A1CE"/><path d="M151.217 118.394c-.036.108-.08.208-.117.316.037-.107.08-.208.117-.316" id="Fill-3" fill="#36A1CE"/><path d="M182.865 114.404c.528-4.39.7-8.776.502-13.153.2 4.378.024 8.765-.502 13.154" id="Fill-4" fill="#36A1CE"/><path d="M182.627 93.367l-.033-.005c.045.31.086.62.127.93-.04-.308-.047-.617-.093-.925" id="Fill-5" fill="#36A1CE"/><path d="M181.055 124.394c.128-.515.26-1.028.384-1.545-.117.52-.267 1.026-.395 1.54l.01.004" id="Fill-6" fill="#36A1CE"/><path d="M182.72 94.292c.26 1.92.47 3.844.587 5.77-.116-1.927-.327-3.85-.586-5.77" id="Fill-7" fill="#36A1CE"/><path d="M170.913 122.688c-7.17-.106-14.345-.055-21.518-.054-3.14 5.852-8.366 9.83-15.862 11.565-3.558.822-7.277 1.24-10.93 1.3-10.166.173-20.337.09-30.505.05-7.64-.027-14.99 1.392-22.093 4.182-10.548 4.144-19.185 10.83-26.39 19.997-7.267-5.633-11.593-12.82-11.936-21.662-.476-12.22-.373-24.477-.053-36.706.39-14.917 10.19-25.11 25.124-26.21 7.52-.556 15.096-.478 22.645-.45.52 0 1.042 0 1.564.002h-.056c-1.67-10.225-1.44-20.45.923-30.58 10.592-.042 21.188.068 31.782.21-.905 1.74-1.674 3.583-2.16 5.608-1.632 6.8-1.696 13.752-.53 20.623.257 1.515.62 2.937 1.05 4.302h-.076c5.626.068 11.25.16 16.874.336 11.59.36 19.96 7 22.777 17.108 6.547.018 13.095.002 19.642-.022 3.876-.015 7.675.354 11.407 1.074-.45-3.057-1.066-6.11-1.914-9.15-5.663-20.315-19.248-32.62-39.436-37.56-6.217-1.523-12.785-2.134-19.203-2.21-21.238-.25-42.51-.732-63.72.135C35.633 45.504 17.508 55.15 7 76.34c-4.143 8.353-5.843 17.36-5.932 26.602-.12 12.504-.46 25.05.332 37.51 1.193 18.777 10.12 33.65 25.338 44.624 9.95 7.176 21.17 10.852 33.473 11.106.432.01.865 0 1.48 0 .97-16.686 11.527-25.974 21.67-28.894 2.897-.834 5.996-1.292 9.01-1.336 4.92-.074 9.842-.052 14.764-.032 5.7.025 11.402.05 17.1-.073 15.944-.342 30.474-4.764 42.335-15.973 7.44-7.032 12.04-15.716 14.475-25.483-.374-.124-.747-.258-1.12-.365-2.897-.834-5.996-1.292-9.012-1.337" id="Fill-8" fill="#36A1CE"/><path d="M176.426 92.502c-1.66-.14-3.335-.215-5.025-.215h-.106.112c.347 0 .693.003 1.04.01h.103c.016.002.032.002.047.002h.077l.063.002h.013c1.233.03 2.458.096 3.676.2" id="Fill-9" fill="#F7C02D"/><path d="M176.96 92.55l-.534-.048c-1.218-.104-2.443-.17-3.676-.2 1.413.033 2.816.116 4.21.248m-4.223-.248h-.064.064m-.093-.002h-.047.047m-.093-.002h-.03.03m-.09 0h-.015.014" id="Fill-10" fill="#2BB8CE"/><path d="M170.913 122.688c-3.628-.054-7.258-.067-10.887-.067h-.007c-2.07 0-4.14.005-6.21.01 2.076-.005 4.152-.01 6.228-.01 3.626 0 7.25.014 10.875.068" id="Fill-11" fill="#F7C02D"/><path d="M149.41 122.634h.42-.42m.42 0c1.326 0 2.654-.003 3.98-.005 2.07-.005 4.14-.01 6.21-.01h.004c-3.398 0-6.796.012-10.194.014" id="Fill-12" fill="#2BB8CE"/><path d="M80.325 70.41c-.044-.392-.082-.785-.118-1.177.036.392.074.785.118 1.178m-.118-1.177c-.036-.393-.068-.785-.1-1.178.032.393.065.785.1 1.178" id="Fill-13" fill="#F7C02D"/><path d="M79.975 66.21c-.03-.476-.054-.952-.075-1.428.02.476.047.952.075 1.428m-.075-1.428c-.017-.385-.03-.77-.04-1.154.01.385.023.77.04 1.154" id="Fill-14" fill="#F7C02D"/><path d="M79.843 62.26c-.033-3.32.145-6.63.543-9.937-.396 3.306-.572 6.618-.543 9.936m.543-9.937c.168-1.4.375-2.8.624-4.196-.248 1.397-.456 2.796-.624 4.196" id="Fill-15" fill="#F7C02D"/><path d="M80.902 74.693c-.114-.7-.197-1.4-.294-2.1.097.7.18 1.4.294 2.1" id="Fill-16" fill="#F7C02D"/><path d="M80.904 74.703l-.002-.01c0 .004 0 .007.002.01" id="Fill-17" fill="#2BB8CE"/><g id="Group-21"><path d="M111.45 49.942c.256-1.068.598-2.08.99-3.058-.374.99-.734 1.99-.99 3.058" id="Fill-18" fill="#2BB8CE"/><path d="M202.593 152.923c-.29 0-.608-.003-.998-.003-.934-16.068-10.757-25.258-20.54-28.526l.027-.107c.16-.632.333-1.256.472-1.897 2.086-9.69 2.52-19.39 1.073-29.023 3.613.7 7.164 1.73 10.653 3.102 10.548 4.142 19.185 10.827 26.39 19.995 7.267-5.632 11.593-12.82 11.936-21.66.475-12.22.372-24.478.052-36.707-.39-14.917-10.19-25.11-25.124-26.21-5.37-.397-10.77-.47-16.167-.47-2.16 0-4.32.012-6.477.02-16.46.056-32.926-.01-49.373.502-9.667.3-17.063 4.995-20.908 12.394l-3.34-.044c-8.203-.11-16.408-.21-24.61-.21-1.28 0-2.562.004-3.843.01.236-1.05.496-2.096.787-3.14 5.664-20.317 19.25-32.62 39.437-37.563 6.217-1.52 12.785-2.132 19.203-2.208 12.123-.144 24.256-.362 36.38-.362 9.12 0 18.237.123 27.34.496 22.69.926 40.814 10.573 51.324 31.762 4.143 8.354 5.843 17.36 5.932 26.602.12 12.505.458 25.05-.333 37.51-1.193 18.778-10.12 33.65-25.338 44.625-9.952 7.176-21.172 10.852-33.474 11.106-.158.002-.316.003-.483.003M81.075 47.763c.08-.437.162-.875.247-1.312.156-.775.324-1.55.505-2.325 1.583-.007 3.167-.01 4.75-.01 7.897 0 15.796.076 23.693.175-7.897-.1-15.796-.175-23.693-.175-1.583 0-3.167.003-4.75.01-.283 1.21-.53 2.424-.752 3.64" id="Fill-20" fill="#F7C02D"/></g><path d="M181.055 124.394l.027-.107c-.01.035-.018.07-.027.107" id="Fill-22" fill="#2BB8CE"/><path d="M81.322 46.45c.154-.787.318-1.574.495-2.36 1.28-.006 2.562-.01 3.843-.01 8.202 0 16.407.1 24.61.21-7.897-.1-15.796-.175-23.693-.175-1.583 0-3.167.003-4.75.01-.18.774-.35 1.55-.505 2.326m32.287-2.116l-3.34-.044 3.34.044" id="Fill-23" fill="#2BB8CE"/><path d="M145.446 122.638c-2.132 0-4.265-.01-6.396-.055-15.943-.342-30.473-4.764-42.335-15.973-7.95-7.513-12.702-16.89-14.984-27.484-.316-1.474-.586-2.948-.826-4.422h.055-.056c10.355.032 20.713.038 31.067.163h-.076.077c2.632 8.374 8.49 13.918 17.782 16.068 3.558.824 7.276 1.24 10.93 1.302 3.62.06 7.242.064 10.863.074l.04.138c.082.254.186.493.25.757.3 1.256.55 2.517.745 3.782.868 5.584.735 11.24-.215 16.84-.56 3.31-1.584 6.223-2.97 8.807-1.317 0-2.633.004-3.95.004m5.723-4.11c-.023.06-.047.12-.068.182.02-.062.045-.12.068-.182.017-.044.034-.088.05-.134l-.05.134m.667-25.323l-.026-.097.025.097m-.026-.1l-.003-.006.002.006" id="Fill-24" fill="#F7C02D"/><path d="M152.58 96.987c-.196-1.265-.444-2.526-.746-3.782-.063-.264-.167-.503-.248-.757.07.22.158.428.22.65 0 .003.002.005.003.008v.002l.025.097c.3 1.256.55 2.517.745 3.782" id="Fill-25" fill="#2BB8CE"/><path d="M151.1 118.71c.02-.062.045-.122.068-.182-.023.06-.047.12-.068.182m.068-.182l.05-.134c-.016.046-.033.09-.05.134" id="Fill-26" fill="#2BB8CE"/><path d="M151.56 92.31h-.015.015M111.97 74.87h-.076.077m-31.01-.164h-.056.055" id="Fill-27" fill="#2BB8CE"/><path d="M182.625 93.367l-.03-.006.03.007m-2.26-.392c-1.104-.17-2.214-.307-3.33-.414.795.076 1.586.168 2.374.276.318.044.637.09.955.14" id="Fill-28" fill="#F7C02D"/><path d="M182.594 93.36c-.74-.142-1.484-.27-2.23-.385-.317-.05-.636-.095-.955-.14 1.066.147 2.128.322 3.184.526" id="Fill-29" fill="#2BB8CE"/><path d="M151.545 92.31c.085.307.215.583.29.895 1.63 6.802 1.695 13.753.53 20.623-.56 3.31-1.584 6.222-2.97 8.806 7.173 0 14.347-.052 21.518.054 3.016.045 6.115.503 9.012 1.337.376.108.753.243 1.13.37.167-.67.353-1.327.498-2.005 2.087-9.69 2.52-19.39 1.074-29.023-3.742-.725-7.553-1.094-11.44-1.08-6.547.025-13.095.042-19.642.024" id="Fill-52" fill="#DF592A"/><path d="M113.61 44.333c-10.595-.14-21.19-.25-31.783-.208-2.363 10.13-2.592 20.353-.923 30.58 10.355.03 20.713.037 31.067.162-.43-1.365-.793-2.787-1.05-4.302-1.165-6.87-1.102-13.822.53-20.623.486-2.025 1.255-3.868 2.16-5.61" id="Fill-53" fill="#DF592A"/><path d="M1019.533 110.195h6.638v6.638h-6.637v-6.638z" id="Fill-47" fill="#CCCDC9"/><path d="M317.798 117.37c-11.748 0-19.012-8.43-19.012-22.152 0-13.722 7.264-22.15 19.012-22.15 5.92 0 9.596 1.523 14.26 6.635l-3.138 2.87c-3.677-4.126-6.547-5.47-11.122-5.47-4.843 0-8.878 1.972-11.48 5.74-2.152 3.137-2.96 6.547-2.96 12.375 0 5.83.808 9.237 2.96 12.377 2.602 3.768 6.637 5.74 11.48 5.74 4.575 0 7.445-1.344 11.122-5.47l3.14 2.87c-4.666 5.112-8.343 6.635-14.262 6.635" id="Fill-30" fill="#36A1CE"/><path d="M366.22 80.78c-2.33-2.333-5.47-3.677-8.967-3.677-3.498 0-6.636 1.344-8.97 3.677-3.587 3.586-3.855 9.417-3.855 14.438 0 5.024.268 10.85 3.856 14.44 2.333 2.333 5.47 3.677 8.97 3.677 3.497 0 6.635-1.344 8.967-3.677 3.588-3.59 3.858-9.416 3.858-14.44 0-5.02-.27-10.852-3.857-14.438zm3.05 31.84c-3.05 3.048-7.173 4.75-12.017 4.75-4.843 0-8.97-1.702-12.018-4.75-4.573-4.576-5.38-11.214-5.38-17.402 0-6.186.807-12.824 5.38-17.4 3.05-3.048 7.175-4.75 12.018-4.75 4.844 0 8.968 1.702 12.018 4.75 4.575 4.576 5.382 11.214 5.382 17.4 0 6.188-.807 12.826-5.38 17.4z" id="Fill-31" fill="#36A1CE"/><path d="M415.896 116.833v-5.112c-3.228 3.77-7.533 5.65-12.734 5.65-4.844 0-8.7-1.435-11.48-4.123-2.87-2.782-4.485-6.908-4.485-12.02V73.605h4.575v26.816c0 8.34 4.215 12.915 11.927 12.915s12.196-4.754 12.196-12.914V73.606h4.575v43.228h-4.574" id="Fill-32" fill="#36A1CE"/><path d="M464.766 116.833V90.018c0-8.34-4.216-12.915-11.93-12.915-7.71 0-12.195 4.754-12.195 12.915v26.815h-4.574V73.605h4.575v5.112c3.23-3.768 7.534-5.65 12.735-5.65 4.844 0 8.7 1.433 11.48 4.124 2.87 2.783 4.486 6.91 4.486 12.02v27.623h-4.574" id="Fill-33" fill="#36A1CE"/><path d="M497.672 117.37c-7.534 0-13.095-1.972-17.49-6.186l3.14-3.14c3.407 3.586 7.982 5.29 14.17 5.29 8.43 0 13.003-2.957 13.003-8.788 0-4.483-2.6-6.725-8.25-7.266l-7.175-.628c-8.7-.715-13.004-4.57-13.004-11.297 0-7.445 6.098-12.287 15.515-12.287 5.92 0 11.39 1.702 15.16 4.572l-3.052 3.05c-3.317-2.422-7.353-3.678-12.107-3.678-7.083 0-11.03 3.05-11.03 8.343 0 4.484 2.69 6.726 8.79 7.263l6.995.628c7.175.628 12.646 2.87 12.646 11.3 0 7.89-6.727 12.824-17.308 12.824" id="Fill-34" fill="#36A1CE"/><path d="M552.908 84.366c-1.882-4.484-6.277-7.263-11.21-7.263-4.933 0-9.327 2.78-11.21 7.263-1.076 2.69-1.347 4.038-1.525 8.164h25.47c-.18-4.126-.448-5.473-1.525-8.164zm-23.945 11.84c0 10.94 4.932 17.04 14.08 17.04 5.113 0 8.25-1.525 11.928-5.202l3.41 2.69c-4.395 4.394-8.432 6.636-15.606 6.636-11.927 0-18.385-7.712-18.385-22.152 0-13.9 6.457-22.15 17.308-22.15 10.762 0 17.31 7.89 17.31 21.076v2.063h-30.045z" id="Fill-35" fill="#36A1CE"/><path d="M582.227 116.833c-6.994 0-10.403-4.484-10.403-11.21V52.98h4.573v52.552c0 4.845 1.525 7.266 6.637 7.266h3.14v4.035h-3.947" id="Fill-36" fill="#36A1CE"/><path d="M606.167 116.833c-6.994 0-10.403-4.484-10.403-11.21V52.98h4.574v52.552c0 4.845 1.524 7.266 6.638 7.266h3.138v4.035h-3.947" id="Fill-37" fill="#36A1CE"/><path d="M619.884 73.605h4.575v43.228h-4.576V73.605zm-.54-20.626h5.65v5.648h-5.65v-5.65z" id="Fill-38" fill="#36A1CE"/><path d="M668.758 116.833V90.018c0-8.34-4.215-12.915-11.927-12.915s-12.198 4.754-12.198 12.915v26.815h-4.573V73.605h4.572v5.112c3.23-3.768 7.535-5.65 12.736-5.65 4.844 0 8.7 1.433 11.48 4.124 2.87 2.783 4.484 6.91 4.484 12.02v27.623h-4.574" id="Fill-39" fill="#36A1CE"/><path d="M702.652 77.103c-10.585 0-12.2 9.147-12.2 18.115 0 8.97 1.615 18.117 12.2 18.117 10.582 0 12.196-9.146 12.196-18.117 0-8.968-1.614-18.115-12.196-18.115zM701.754 138c-6.46 0-9.687-1.705-14.26-5.74l3.05-3.05c3.407 3.05 5.74 4.752 11.21 4.752 9.06 0 13.094-6.456 13.094-14.975v-7.715c-3.768 5.024-7.982 6.098-12.824 6.098-4.487 0-8.343-1.523-10.585-3.765-4.395-4.396-5.56-11.57-5.56-18.387 0-6.814 1.165-13.99 5.56-18.385 2.24-2.242 6.097-3.765 10.584-3.765 4.842 0 9.056 1.074 12.824 6.098v-5.56h4.575v45.648c0 10.852-6.46 18.746-17.67 18.746z" id="Fill-40" fill="#36A1CE"/><path d="M760.4 96.207h-13.456c-7.442 0-11.03 2.957-11.03 8.697 0 5.74 3.497 8.43 11.3 8.43 3.947 0 7.71-.357 10.764-3.318 1.614-1.523 2.42-4.214 2.42-8.248v-5.56zm0 20.626v-4.305c-3.678 3.677-7.09 4.842-13.186 4.842-6.368 0-9.954-1.074-12.736-3.944-1.972-2.063-3.14-5.203-3.14-8.43 0-7.894 5.652-12.466 15.07-12.466h13.99v-4.845c0-6.905-3.41-10.582-12.198-10.582-6.098 0-9.238 1.523-11.93 5.47l-3.315-2.87c3.677-5.112 8.25-6.635 15.245-6.635 11.392 0 16.77 5.112 16.77 14.168v29.597h-4.57z" id="Fill-41" fill="#DF592A"/><path d="M791.69 116.833c-6.816 0-10.405-4.754-10.405-11.3v-28.52h-5.92v-3.408h5.92V59.792h4.575v13.813h9.774v3.407h-9.774v28.612c0 4.483 2.063 7.174 6.638 7.174h3.136v4.035h-3.943" id="Fill-42" fill="#DF592A"/><path d="M836.26 116.833V90.018c0-8.34-4.218-12.915-11.93-12.915-7.715 0-12.2 4.754-12.2 12.915v26.815h-4.57V52.98h4.57v25.737c3.233-3.768 7.534-5.65 12.737-5.65 9.866 0 15.964 6.187 15.964 16.144v27.623h-4.57" id="Fill-43" fill="#F1B02C"/><path d="M879.744 80.78c-2.33-2.333-5.47-3.677-8.968-3.677s-6.638 1.344-8.968 3.677c-3.59 3.586-3.856 9.417-3.856 14.438 0 5.024.267 10.85 3.856 14.44 2.33 2.333 5.47 3.677 8.968 3.677s6.638-1.344 8.968-3.677c3.59-3.59 3.855-9.416 3.855-14.44 0-5.02-.267-10.852-3.856-14.438zm3.048 31.84c-3.048 3.048-7.174 4.75-12.016 4.75s-8.968-1.702-12.017-4.75c-4.576-4.576-5.383-11.214-5.383-17.402 0-6.186.807-12.824 5.382-17.4 3.048-3.048 7.174-4.75 12.016-4.75s8.968 1.702 12.016 4.75c4.575 4.576 5.382 11.214 5.382 17.4 0 6.188-.807 12.826-5.382 17.4z" id="Fill-44" fill="#F1B02C"/><path d="M958.66 116.833V90.018c0-8.34-4.217-12.915-11.93-12.915-7.444 0-12.198 4.754-12.198 12.108v27.623h-4.572V90.018c0-8.34-4.217-12.915-11.928-12.915-7.715 0-12.2 4.754-12.2 12.915v26.815h-4.57V73.605h4.57v5.112c3.14-3.677 7.625-5.65 12.828-5.65 6.368 0 11.3 2.78 13.9 7.892 3.228-5.113 8.34-7.892 14.708-7.892 4.754 0 8.7 1.523 11.392 4.123 2.87 2.783 4.484 6.91 4.484 12.02v27.623h-4.484" id="Fill-45" fill="#F1B02C"/><path d="M1004.204 84.366c-1.884-4.484-6.28-7.263-11.213-7.263-4.932 0-9.325 2.78-11.21 7.263-1.076 2.69-1.343 4.038-1.52 8.164h25.467c-.18-4.126-.45-5.473-1.523-8.164zm-23.945 11.84c0 10.94 4.928 17.04 14.078 17.04 5.112 0 8.252-1.525 11.93-5.202l3.406 2.69c-4.396 4.394-8.43 6.636-15.606 6.636-11.93 0-18.384-7.712-18.384-22.152 0-13.9 6.455-22.15 17.307-22.15 10.765 0 17.312 7.89 17.312 21.076v2.063H980.26z" id="Fill-46" fill="#F1B02C"/><path d="M1058.09 117.37c-11.75 0-19.012-8.43-19.012-22.152 0-13.722 7.263-22.15 19.013-22.15 5.92 0 9.597 1.523 14.263 6.635l-3.14 2.87c-3.677-4.126-6.547-5.47-11.122-5.47-4.84 0-8.88 1.972-11.48 5.74-2.15 3.137-2.957 6.547-2.957 12.375 0 5.83.807 9.237 2.958 12.377 2.6 3.768 6.64 5.74 11.48 5.74 4.576 0 7.446-1.344 11.123-5.47l3.14 2.87c-4.666 5.112-8.343 6.635-14.262 6.635" id="Fill-48" fill="#CCCDC9"/><path d="M1106.515 80.78c-2.33-2.333-5.47-3.677-8.968-3.677s-6.638 1.344-8.967 3.677c-3.59 3.586-3.856 9.417-3.856 14.438 0 5.024.267 10.85 3.856 14.44 2.33 2.333 5.47 3.677 8.967 3.677 3.498 0 6.638-1.344 8.968-3.677 3.59-3.59 3.856-9.416 3.856-14.44 0-5.02-.266-10.852-3.855-14.438zm3.05 31.84c-3.05 3.048-7.176 4.75-12.018 4.75-4.84 0-8.967-1.702-12.016-4.75-4.574-4.576-5.38-11.214-5.38-17.402 0-6.186.806-12.824 5.38-17.4 3.05-3.048 7.176-4.75 12.017-4.75 4.842 0 8.968 1.702 12.017 4.75 4.575 4.576 5.382 11.214 5.382 17.4 0 6.188-.807 12.826-5.382 17.4z" id="Fill-49" fill="#CCCDC9"/><path d="M1185.43 116.833V90.018c0-8.34-4.216-12.915-11.928-12.915-7.444 0-12.198 4.754-12.198 12.108v27.623h-4.572V90.018c0-8.34-4.217-12.915-11.93-12.915-7.714 0-12.198 4.754-12.198 12.915v26.815h-4.57V73.605h4.57v5.112c3.14-3.677 7.624-5.65 12.827-5.65 6.37 0 11.302 2.78 13.902 7.892 3.228-5.113 8.34-7.892 14.707-7.892 4.753 0 8.7 1.523 11.39 4.123 2.87 2.783 4.485 6.91 4.485 12.02v27.623h-4.484" id="Fill-50" fill="#CCCDC9"/></g></g></svg>