<?xml version="1.0" encoding="UTF-8" standalone="no"?>
<svg width="212px" height="35px" viewBox="0 0 212 35" version="1.1" xmlns="http://www.w3.org/2000/svg" xmlns:xlink="http://www.w3.org/1999/xlink" xmlns:sketch="http://www.bohemiancoding.com/sketch/ns">
    <!-- Generator: Sketch 3.3.2 (12043) - http://www.bohemiancoding.com/sketch -->
    <title>COU12001_logo_rgb</title>
    <desc>Created with Sketch.</desc>
    <defs></defs>
    <g id="Page-1" stroke="none" stroke-width="1" fill="none" fill-rule="evenodd" sketch:type="MSPage">
        <g id="COU12001_logo_rgb" sketch:type="MSLayerGroup">
            <path id="Fill-1" fill="#36A1CE" sketch:type="MSShapeGroup" d="M27.2092132,18.3867259 C27.196066,17.7743147 27.120736,17.1635025 26.9757614,16.559264 C26.9626142,16.5052538 26.9405838,16.4569289 26.9254822,16.4041624 C26.9402284,16.4572843 26.9626142,16.5052538 26.9755838,16.559264 C27.1205584,17.1635025 27.196066,17.7743147 27.2092132,18.3867259"></path>
            <path id="Fill-2" fill="#36A1CE" sketch:type="MSShapeGroup" d="M32.4542386,20.5919036 C32.4011168,20.9758376 32.338401,21.3599492 32.2557868,21.7438832 C32.338401,21.3599492 32.4011168,20.9758376 32.4542386,20.5919036"></path>
            <path id="Fill-3" fill="#36A1CE" sketch:type="MSShapeGroup" d="M26.8659645,21.034467 C26.8595685,21.0536548 26.8515736,21.0714213 26.8451777,21.0906091 C26.8517513,21.071599 26.8593909,21.0536548 26.8659645,21.034467"></path>
            <path id="Fill-4" fill="#36A1CE" sketch:type="MSShapeGroup" d="M32.4887056,20.3255838 C32.5825127,19.5456345 32.6128934,18.7663959 32.5778934,17.9887563 C32.6132487,18.7663959 32.5821574,19.5458122 32.4887056,20.3255838"></path>
            <path id="Fill-5" fill="#36A1CE" sketch:type="MSShapeGroup" d="M32.4464213,16.5880457 L32.4405584,16.5871574 C32.4485533,16.6422335 32.4558376,16.6973096 32.4631218,16.7523858 C32.4558376,16.697665 32.4545939,16.6427665 32.4464213,16.5880457"></path>
            <path id="Fill-6" fill="#36A1CE" sketch:type="MSShapeGroup" d="M32.167132,22.1004569 C32.1898731,22.0089594 32.2133249,21.9178173 32.2353553,21.8259645 C32.2147462,21.9187056 32.1880964,22.0084264 32.1653553,22.0999239 L32.167132,22.1004569"></path>
            <path id="Fill-7" fill="#36A1CE" sketch:type="MSShapeGroup" d="M32.4631218,16.7523858 C32.5091371,17.0936802 32.5464467,17.4353299 32.5672335,17.777335 C32.5466244,17.4351523 32.5091371,17.0936802 32.4631218,16.7523858"></path>
            <path d="M30.3652538,21.7973604 C29.0912183,21.7785279 27.8166497,21.7875888 26.5422589,21.7877665 C25.9842132,22.8274619 25.0559137,23.5342132 23.7241371,23.8424619 C23.0920051,23.9886802 22.431269,24.0627665 21.7820812,24.0737817 C19.9761168,24.1043401 18.1690863,24.0894162 16.3625888,24.082665 C15.0050508,24.0776904 13.6993909,24.329797 12.4374365,24.8254822 C10.5634264,25.5617259 9.02893401,26.7494162 7.7486802,28.3782487 C6.4577665,27.3776396 5.68918782,26.1007614 5.62824873,24.5298477 C5.54385787,22.3589594 5.56215736,20.1811421 5.61901015,18.0084772 C5.68829949,15.3582487 7.42923858,13.5474873 10.082665,13.3517005 C11.4185279,13.2530964 12.7645178,13.2669543 14.1057107,13.2717513 C14.1982741,13.2721066 14.2908376,13.2721066 14.3835787,13.2722843 L14.3738071,13.2722843 C14.0772843,11.4556599 14.1179695,9.63903553 14.5377919,7.83946701 C16.4196193,7.83182741 18.3021574,7.85137056 20.1843401,7.87659898 C20.023731,8.18573604 19.8871066,8.51317259 19.8007614,8.87294416 C19.5108122,10.0812437 19.4994416,11.3161929 19.706599,12.5369289 C19.7522589,12.8060914 19.8169289,13.058731 19.8933249,13.3012437 L19.8796447,13.3012437 C20.8791878,13.3133249 21.8785533,13.3298477 22.8775635,13.3609391 C24.9367005,13.4250761 26.423934,14.6045939 26.9242386,16.4004315 C28.0874112,16.4034518 29.2507614,16.4006091 30.413934,16.3963452 C31.1025635,16.3936802 31.7775127,16.4592386 32.4405584,16.5871574 C32.3606091,16.0440355 32.2511675,15.501802 32.1005076,14.9617005 C31.0943909,11.3522589 28.6808122,9.16626904 25.0941117,8.28824873 C23.9895685,8.01784264 22.822665,7.90928934 21.6824112,7.89596447 C17.9089848,7.85137056 14.1295178,7.76573604 10.361599,7.91977157 C6.33055838,8.08446701 3.11038071,9.79822335 1.24329949,13.5629442 C0.507233503,15.0469797 0.205203046,16.6473858 0.189390863,18.2891878 C0.168071066,20.5107107 0.107664975,22.7395178 0.248375635,24.953401 C0.460329949,28.2894162 2.04634518,30.9316497 4.75005076,32.8815228 C6.51781726,34.1564467 8.51139594,34.8095431 10.6970305,34.8546701 C10.7739594,34.856269 10.8508883,34.8548477 10.9601523,34.8548477 C11.1324873,31.8901523 13.0080964,30.24 14.8101523,29.7212183 C15.3248477,29.5730457 15.8754315,29.4916751 16.4110914,29.4838579 C17.285203,29.4707107 18.1594924,29.4746193 19.0339594,29.4781726 C20.0468274,29.4826142 21.0596954,29.4868782 22.0720305,29.465203 C24.9047208,29.4044416 27.4861929,28.6188071 29.5934772,26.6273604 C30.9156599,25.3780203 31.7329188,23.8351777 32.1653553,22.0999239 C32.0989086,22.0777157 32.0326396,22.0539086 31.9663706,22.0348985 C31.4516751,21.8867259 30.9010914,21.8053553 30.3652538,21.7973604" id="Fill-8" fill="#36A1CE" sketch:type="MSShapeGroup"></path>
            <path id="Fill-9" fill="#F7C02D" sketch:type="MSShapeGroup" d="M31.3447208,16.4343655 C31.0496193,16.4093147 30.7522081,16.3961675 30.4519543,16.3961675 L30.4329442,16.3961675 L30.4528426,16.3961675 C30.5144924,16.3961675 30.5759645,16.3967005 30.6374365,16.3979442 L30.6399239,16.3979442 C30.6434772,16.3979442 30.6472081,16.3979442 30.6507614,16.3981218 L30.656269,16.3981218 C30.658934,16.3982995 30.6617766,16.3982995 30.6644416,16.3982995 C30.6671066,16.3984772 30.6699492,16.3984772 30.6727919,16.3984772 C30.6745685,16.3984772 30.6761675,16.3986548 30.6779442,16.3986548 C30.6816751,16.3986548 30.6855838,16.3988325 30.6893147,16.3988325 C30.6900254,16.3988325 30.6909137,16.3990102 30.6916244,16.3990102 C30.9106853,16.4039848 31.1283249,16.4158883 31.3447208,16.4343655"></path>
            <path id="Fill-10" fill="#2BB8CE" sketch:type="MSShapeGroup"></path>
            <path id="Fill-11" fill="#F7C02D" sketch:type="MSShapeGroup" d="M30.3652538,21.7973604 C29.7206853,21.7877665 29.0757614,21.7854569 28.4310152,21.7854569 L28.4306599,21.7854569 L28.4297716,21.7854569 C28.0620051,21.7854569 27.6944162,21.7861675 27.3266497,21.7868782 C27.6954822,21.7861675 28.0643147,21.7852792 28.4331472,21.7852792 C29.0773604,21.7852792 29.7213959,21.7877665 30.3652538,21.7973604"></path>
            <path id="Fill-12" fill="#2BB8CE" sketch:type="MSShapeGroup"></path>
            <path id="Fill-13" fill="#F7C02D" sketch:type="MSShapeGroup"></path>
            <path id="Fill-14" fill="#F7C02D" sketch:type="MSShapeGroup"></path>
            <path id="Fill-15" fill="#F7C02D" sketch:type="MSShapeGroup"></path>
            <path id="Fill-16" fill="#F7C02D" sketch:type="MSShapeGroup" d="M14.3734518,13.2703299 L14.3734518,13.2703299 C14.353198,13.1459645 14.3384518,13.0214213 14.3212183,12.8970558 C14.3384518,13.0214213 14.353198,13.1459645 14.3734518,13.2703299"></path>
            <path id="Fill-17" fill="#2BB8CE" sketch:type="MSShapeGroup" d="M14.3738071,13.2721066 C14.3736294,13.2715736 14.3734518,13.2710406 14.3734518,13.2703299 C14.3734518,13.2710406 14.3736294,13.2715736 14.3738071,13.2721066"></path>
            <g id="Group-21" transform="translate(14.390863, 0.000000)" sketch:type="MSShapeGroup">
                <path id="Fill-18" fill="#2BB8CE" d="M5.40989848,8.87294416 C5.45538071,8.68319797 5.51614213,8.50340102 5.5857868,8.32964467 C5.5193401,8.50553299 5.45538071,8.68337563 5.40989848,8.87294416"></path>
                <path d="M21.6028173,27.1690609 C21.5511168,27.1690609 21.494797,27.1685279 21.4255076,27.1685279 C21.2595685,24.3138071 19.5143655,22.681066 17.776269,22.1004569 C17.777868,22.0940609 17.779467,22.087665 17.781066,22.0814467 C17.8093147,21.9691624 17.8402284,21.8582995 17.8649239,21.7444162 C18.235533,20.0228426 18.3124619,18.2993147 18.0555584,16.5880457 C18.6974619,16.7124112 19.3283503,16.8955838 19.9482234,17.1391624 C21.8222335,17.8752284 23.3567259,19.0629188 24.6369797,20.6917513 C25.9278934,19.6911421 26.6964721,18.414264 26.7574112,16.8433503 C26.841802,14.6724619 26.8235025,12.4946447 26.7666497,10.3219797 C26.6973604,7.67175127 24.9562437,5.86098985 22.3029949,5.66520305 C21.348934,5.59484772 20.3895431,5.58187817 19.4306853,5.58187817 C19.0469289,5.58187817 18.6631726,5.58401015 18.2799492,5.58525381 C15.3557614,5.59538071 12.4301523,5.58365482 9.50809645,5.67461929 C7.79060914,5.72791878 6.47659898,6.56205584 5.79347716,7.87659898 C5.59573604,7.87393401 5.39799492,7.87126904 5.20025381,7.86878173 C3.74286802,7.84941624 2.2851269,7.83164975 0.827918782,7.83164975 C0.600329949,7.83164975 0.372741117,7.83218274 0.145152284,7.83307107 C0.187081218,7.64687817 0.233274112,7.46086294 0.284974619,7.27520305 C1.29126904,3.66576142 3.70484772,1.47977157 7.29154822,0.601751269 C8.39591371,0.331522843 9.56281726,0.222969543 10.7030711,0.209467005 C12.8569036,0.184060914 15.0125127,0.145329949 17.1667005,0.145329949 C18.7870051,0.145329949 20.406599,0.167182741 22.0240609,0.233451777 C26.0551015,0.397969543 29.2751015,2.11190355 31.1423604,5.8764467 C31.8784264,7.3606599 32.1804569,8.96088832 32.196269,10.6026904 C32.2175888,12.8243909 32.2778173,15.053198 32.1372843,17.2669036 C31.9253299,20.6030964 30.3391371,23.2451523 27.6356091,25.195203 C25.867665,26.4701269 23.874264,27.1232234 21.6886294,27.1683503 C21.6605584,27.1688832 21.6324873,27.1690609 21.6028173,27.1690609 M0.0133248731,8.48598985 C0.0273604061,8.40817259 0.042106599,8.33035533 0.0572081218,8.25271574 C0.0849238579,8.11484772 0.114771574,7.9769797 0.146928934,7.83946701 C0.428172589,7.83822335 0.709593909,7.83769036 0.990837563,7.83769036 C2.39385787,7.83769036 3.7972335,7.85119289 5.20025381,7.86878173 C3.7972335,7.85119289 2.39385787,7.83769036 0.990837563,7.83769036 C0.709593909,7.83769036 0.428172589,7.83822335 0.146928934,7.83946701 C0.0966497462,8.05461929 0.0527664975,8.2701269 0.0133248731,8.48598985" id="Fill-20" fill="#F7C02D"></path>
            </g>
            <path id="Fill-22" fill="#2BB8CE" sketch:type="MSShapeGroup" d="M32.167132,22.1004569 L32.167132,22.1004569 C32.168731,22.0940609 32.1703299,22.087665 32.1719289,22.0814467 C32.1703299,22.087665 32.168731,22.0940609 32.167132,22.1004569"></path>
            <path id="Fill-23" fill="#2BB8CE" sketch:type="MSShapeGroup"></path>
            <path d="M25.8406599,21.7884772 C25.4618782,21.7884772 25.0829188,21.7868782 24.7043147,21.7787056 C21.871802,21.7179442 19.2903299,20.9323096 17.182868,18.9408629 C15.7702538,17.606066 14.9261675,15.9401015 14.520736,14.0579188 C14.4644162,13.7960406 14.4164467,13.5341624 14.3738071,13.2722843 L14.3835787,13.2722843 L14.3738071,13.2722843 C16.2135279,13.2779695 18.0537817,13.2790355 19.8933249,13.3012437 L19.8796447,13.3012437 C19.8840863,13.3012437 19.8887056,13.3014213 19.8933249,13.3014213 C20.3607614,14.7890102 21.4017005,15.7739848 23.0523858,16.1559645 C23.6845178,16.3023604 24.3450761,16.376269 24.9944416,16.3872843 C25.6375888,16.3981218 26.2809137,16.3986548 26.9242386,16.4004315 C26.9265482,16.4086041 26.9290355,16.4167766 26.9315228,16.4247716 C26.9459137,16.4698985 26.9643909,16.5123604 26.9755838,16.559264 C27.0292386,16.7824112 27.0732995,17.0064467 27.1081218,17.2311929 C27.262335,18.2232741 27.2387056,19.2279695 27.0699239,20.2232487 C26.9702538,20.8113198 26.7885025,21.3286802 26.5422589,21.7877665 C26.3082741,21.7879442 26.074467,21.7884772 25.8406599,21.7884772 M26.8572589,21.0582741 C26.8531726,21.068934 26.8489086,21.0795939 26.8451777,21.0906091 C26.8489086,21.0795939 26.8531726,21.0691117 26.8572589,21.0582741 C26.8602792,21.0504569 26.8632995,21.0426396 26.8659645,21.034467 C26.8631218,21.0426396 26.8602792,21.0504569 26.8572589,21.0582741 M26.9757614,16.559264 C26.9743401,16.553401 26.9727411,16.5477157 26.9711421,16.5420305 C26.9727411,16.5477157 26.9743401,16.553401 26.9757614,16.559264 M26.9711421,16.5416751 C26.9709645,16.5411421 26.9707868,16.5407868 26.9707868,16.5404315 C26.9707868,16.5407868 26.9709645,16.5411421 26.9711421,16.5416751" id="Fill-24" fill="#F7C02D" sketch:type="MSShapeGroup"></path>
            <path id="Fill-25" fill="#2BB8CE" sketch:type="MSShapeGroup" d="M27.1081218,17.2311929 C27.0732995,17.0064467 27.0292386,16.7824112 26.9755838,16.559264 C26.9643909,16.5123604 26.9459137,16.4698985 26.9315228,16.4247716 C26.9441371,16.4636802 26.9595939,16.5008122 26.9707868,16.5404315 C26.9707868,16.5407868 26.9709645,16.5411421 26.9711421,16.5416751 L26.9711421,16.5420305 C26.9727411,16.5477157 26.9743401,16.553401 26.9757614,16.559264 C27.0292386,16.7824112 27.0732995,17.0064467 27.1081218,17.2311929"></path>
            <path id="Fill-26" fill="#2BB8CE" sketch:type="MSShapeGroup"></path>
            <path d="M26.9269036,16.4004315 L26.9242386,16.4004315 L26.9269036,16.4004315 M19.8933249,13.3014213 C19.8887056,13.3014213 19.8840863,13.3012437 19.8796447,13.3012437 L19.8933249,13.3012437 M14.3835787,13.2722843 L14.3738071,13.2722843 L14.3835787,13.2722843" id="Fill-27" fill="#2BB8CE" sketch:type="MSShapeGroup"></path>
            <path id="Fill-28" fill="#F7C02D" sketch:type="MSShapeGroup"></path>
            <path id="Fill-29" fill="#2BB8CE" sketch:type="MSShapeGroup" d="M32.4405584,16.5869797 C32.3089086,16.5615736 32.1769036,16.5386548 32.0445431,16.518401 C31.9880457,16.5096954 31.9313706,16.5015228 31.8746954,16.4937056 C32.064264,16.5196447 32.2529442,16.550736 32.4405584,16.5869797"></path>
            <path d="M26.9242386,16.4004315 C26.9393401,16.454797 26.9624365,16.5038325 26.9757614,16.559264 C27.265533,17.7677411 27.2769036,19.0026904 27.0699239,20.2232487 C26.9702538,20.8113198 26.7885025,21.3286802 26.5422589,21.7877665 C27.8166497,21.7875888 29.0912183,21.7785279 30.3652538,21.7973604 C30.9010914,21.8053553 31.4516751,21.8867259 31.9663706,22.0348985 C32.0331726,22.0540863 32.1001523,22.0780711 32.167132,22.1004569 C32.196802,21.9817766 32.2298477,21.8648731 32.2556091,21.7444162 C32.6263959,20.0228426 32.7033249,18.2993147 32.4464213,16.5880457 C31.781599,16.4592386 31.1045178,16.3936802 30.413934,16.3963452 C29.2507614,16.4006091 28.0874112,16.4036294 26.9242386,16.4004315" id="Fill-52" fill="#DF592A" sketch:type="MSShapeGroup"></path>
            <path d="M20.1843401,7.87642132 C18.3021574,7.85137056 16.4196193,7.83182741 14.5377919,7.83946701 C14.1179695,9.63903553 14.0772843,11.4554822 14.3738071,13.2722843 C16.2135279,13.2779695 18.0537817,13.2790355 19.8933249,13.3012437 C19.8169289,13.058731 19.7522589,12.8060914 19.706599,12.5369289 C19.4996193,11.3161929 19.5108122,10.0812437 19.8007614,8.87294416 C19.8871066,8.51317259 20.023731,8.18573604 20.1843401,7.87642132" id="Fill-53" fill="#DF592A" sketch:type="MSShapeGroup"></path>
            <path d="M56.4615736,21.2458883 C54.3743655,21.2458883 53.0838071,19.7479949 53.0838071,17.3102538 C53.0838071,14.872335 54.3743655,13.3749746 56.4615736,13.3749746 C57.5131726,13.3749746 58.1664467,13.6455584 58.9952538,14.5537817 L58.4375635,15.0636802 C57.7842893,14.3306345 57.2743909,14.0918528 56.4615736,14.0918528 C55.6011421,14.0918528 54.884264,14.4422081 54.4221574,15.1116497 C54.0396447,15.6689848 53.896269,16.2748223 53.896269,17.3102538 C53.896269,18.3462183 54.0396447,18.9513452 54.4221574,19.5092132 C54.884264,20.1786548 55.6011421,20.5290102 56.4615736,20.5290102 C57.2743909,20.5290102 57.7842893,20.2902284 58.4375635,19.5571827 L58.9952538,20.0670812 C58.1664467,20.9753046 57.5131726,21.2458883 56.4615736,21.2458883" id="Fill-30" fill="#36A1CE" sketch:type="MSShapeGroup"></path>
            <path d="M65.0646447,14.7451269 C64.6503299,14.3306345 64.0928173,14.0918528 63.4713452,14.0918528 C62.8498731,14.0918528 62.2923604,14.3306345 61.877868,14.7451269 C61.2404061,15.3822335 61.1927919,16.418198 61.1927919,17.3102538 C61.1927919,18.2028426 61.2404061,19.2380964 61.877868,19.875736 C62.2923604,20.2902284 62.8498731,20.5290102 63.4713452,20.5290102 C64.0928173,20.5290102 64.6503299,20.2902284 65.0646447,19.875736 C65.7019289,19.2380964 65.7498985,18.2028426 65.7498985,17.3102538 C65.7498985,16.418198 65.7019289,15.3822335 65.0646447,14.7451269 L65.0646447,14.7451269 Z M65.6065228,20.401802 C65.0646447,20.9435025 64.3319543,21.2458883 63.4713452,21.2458883 C62.6109137,21.2458883 61.877868,20.9435025 61.3361675,20.401802 C60.5237056,19.5889848 60.3803299,18.4096447 60.3803299,17.3102538 C60.3803299,16.2112183 60.5237056,15.0318782 61.3361675,14.2190609 C61.877868,13.6773604 62.6109137,13.3749746 63.4713452,13.3749746 C64.3319543,13.3749746 65.0646447,13.6773604 65.6065228,14.2190609 C66.4191624,15.0318782 66.5625381,16.2112183 66.5625381,17.3102538 C66.5625381,18.4096447 66.4191624,19.5889848 65.6065228,20.401802 L65.6065228,20.401802 Z" id="Fill-31" fill="#36A1CE" sketch:type="MSShapeGroup"></path>
            <path d="M73.8901523,21.1504822 L73.8901523,20.2422589 C73.3166497,20.9117005 72.551802,21.2458883 71.6277665,21.2458883 C70.7671574,21.2458883 70.0822589,20.9909391 69.5881726,20.5133756 C69.0782741,20.0191117 68.7913452,19.286066 68.7913452,18.3778426 L68.7913452,13.4703807 L69.6041624,13.4703807 L69.6041624,18.2346447 C69.6041624,19.7161929 70.3530203,20.5290102 71.7231726,20.5290102 C73.0935025,20.5290102 73.8901523,19.6843909 73.8901523,18.2346447 L73.8901523,13.4703807 L74.7029695,13.4703807 L74.7029695,21.1504822 L73.8901523,21.1504822" id="Fill-32" fill="#36A1CE" sketch:type="MSShapeGroup"></path>
            <path d="M82.5726396,21.1504822 L82.5726396,16.3863959 C82.5726396,14.9046701 81.8236041,14.0918528 80.4532741,14.0918528 C79.0831218,14.0918528 78.2864721,14.9364721 78.2864721,16.3863959 L78.2864721,21.1504822 L77.4736548,21.1504822 L77.4736548,13.4703807 L78.2864721,13.4703807 L78.2864721,14.3786041 C78.8599746,13.7091624 79.6248223,13.3749746 80.5488579,13.3749746 C81.409467,13.3749746 82.0945431,13.6293909 82.5884518,14.1074873 C83.0983503,14.6017513 83.3854569,15.334797 83.3854569,16.2430203 L83.3854569,21.1504822 L82.5726396,21.1504822" id="Fill-33" fill="#36A1CE" sketch:type="MSShapeGroup"></path>
            <path d="M88.4188832,21.2458883 C87.0803553,21.2458883 86.0923604,20.895533 85.3115228,20.1468528 L85.8693909,19.5889848 C86.4746954,20.2260914 87.2875127,20.5290102 88.3867259,20.5290102 C89.8846193,20.5290102 90.6970812,20.0034772 90.6970812,18.9675127 C90.6970812,18.1710406 90.2353299,17.7727157 89.2313452,17.676599 L87.956599,17.5650254 C86.4110914,17.4379949 85.6462437,16.7529188 85.6462437,15.5579442 C85.6462437,14.2352284 86.7296447,13.3749746 88.4027157,13.3749746 C89.4544924,13.3749746 90.4263198,13.6773604 91.0957614,14.1872589 L90.5537056,14.7289594 C89.9643909,14.2988325 89.247335,14.0756853 88.4027157,14.0756853 C87.1441371,14.0756853 86.4428934,14.6173858 86.4428934,15.5579442 C86.4428934,16.3545939 86.9209898,16.7529188 88.0043909,16.8483249 L89.247335,16.9598985 C90.5220812,17.0714721 91.4940863,17.469797 91.4940863,18.9675127 C91.4940863,20.369467 90.2987563,21.2458883 88.4188832,21.2458883" id="Fill-34" fill="#36A1CE" sketch:type="MSShapeGroup"></path>
            <path d="M98.2323858,15.3822335 C97.8980203,14.5855838 97.1171827,14.0918528 96.2407614,14.0918528 C95.3643401,14.0918528 94.5836802,14.5855838 94.2489594,15.3822335 C94.0579695,15.8603299 94.0098223,16.0996447 93.978198,16.8326904 L98.5031472,16.8326904 C98.4713452,16.0996447 98.423731,15.8603299 98.2323858,15.3822335 L98.2323858,15.3822335 Z M93.978198,17.4859645 C93.978198,19.4294416 94.8544416,20.5133756 96.4798985,20.5133756 C97.3881218,20.5133756 97.9456345,20.2422589 98.5989086,19.5889848 L99.2043909,20.0670812 C98.423731,20.8475635 97.7064975,21.2458883 96.4319289,21.2458883 C94.3129188,21.2458883 93.1655584,19.875736 93.1655584,17.3102538 C93.1655584,14.840533 94.3129188,13.3749746 96.2407614,13.3749746 C98.1527919,13.3749746 99.3159645,14.7769289 99.3159645,17.1194416 L99.3159645,17.4859645 L93.978198,17.4859645 L93.978198,17.4859645 Z" id="Fill-35" fill="#36A1CE" sketch:type="MSShapeGroup"></path>
            <path d="M103.441345,21.1504822 C102.198756,21.1504822 101.593096,20.3538325 101.593096,19.1590355 L101.593096,9.80586294 L102.405558,9.80586294 L102.405558,19.1426904 C102.405558,20.0034772 102.676497,20.4336041 103.584721,20.4336041 L104.142589,20.4336041 L104.142589,21.1504822 L103.441345,21.1504822" id="Fill-36" fill="#36A1CE" sketch:type="MSShapeGroup"></path>
            <path d="M107.694645,21.1504822 C106.452056,21.1504822 105.846396,20.3538325 105.846396,19.1590355 L105.846396,9.80586294 L106.659036,9.80586294 L106.659036,19.1426904 C106.659036,20.0034772 106.929797,20.4336041 107.838376,20.4336041 L108.395888,20.4336041 L108.395888,21.1504822 L107.694645,21.1504822" id="Fill-37" fill="#36A1CE" sketch:type="MSShapeGroup"></path>
            <path d="M110.131675,13.4703807 L110.944492,13.4703807 L110.944492,21.1504822 L110.131675,21.1504822 L110.131675,13.4703807 Z M110.035914,9.80586294 L111.039721,9.80586294 L111.039721,10.8094924 L110.035914,10.8094924 L110.035914,9.80586294 Z" id="Fill-38" fill="#36A1CE" sketch:type="MSShapeGroup"></path>
            <path d="M118.814873,21.1504822 L118.814873,16.3863959 C118.814873,14.9046701 118.066015,14.0918528 116.695863,14.0918528 C115.325533,14.0918528 114.528528,14.9364721 114.528528,16.3863959 L114.528528,21.1504822 L113.716066,21.1504822 L113.716066,13.4703807 L114.528528,13.4703807 L114.528528,14.3786041 C115.102386,13.7091624 115.867234,13.3749746 116.791269,13.3749746 C117.651878,13.3749746 118.336777,13.6293909 118.830863,14.1074873 C119.340761,14.6017513 119.627513,15.334797 119.627513,16.2430203 L119.627513,21.1504822 L118.814873,21.1504822" id="Fill-39" fill="#36A1CE" sketch:type="MSShapeGroup"></path>
            <path d="M124.83665,14.0918528 C122.956066,14.0918528 122.669315,15.7169543 122.669315,17.3102538 C122.669315,18.9040863 122.956066,20.5290102 124.83665,20.5290102 C126.716701,20.5290102 127.003452,18.9040863 127.003452,17.3102538 C127.003452,15.7169543 126.716701,14.0918528 124.83665,14.0918528 L124.83665,14.0918528 Z M124.677107,24.9111168 C123.529569,24.9111168 122.956066,24.608198 122.143604,23.8913198 L122.685305,23.3496193 C123.290787,23.8913198 123.705279,24.1937056 124.677107,24.1937056 C126.286574,24.1937056 127.003452,23.0467005 127.003452,21.5331726 L127.003452,20.1624873 C126.33401,21.0550761 125.58533,21.2458883 124.725076,21.2458883 C123.927893,21.2458883 123.242817,20.9753046 122.844492,20.5769797 C122.063832,19.7959645 121.856853,18.5212183 121.856853,17.3102538 C121.856853,16.0996447 122.063832,14.8248985 122.844492,14.0438832 C123.242817,13.6455584 123.927893,13.3749746 124.725076,13.3749746 C125.58533,13.3749746 126.33401,13.5657868 127.003452,14.4583756 L127.003452,13.4703807 L127.816269,13.4703807 L127.816269,21.5806091 C127.816269,23.5086294 126.668731,24.9111168 124.677107,24.9111168 L124.677107,24.9111168 Z" id="Fill-40" fill="#36A1CE" sketch:type="MSShapeGroup"></path>
            <path d="M135.096269,17.4859645 L132.705787,17.4859645 C131.383604,17.4859645 130.745964,18.0113198 130.745964,19.0311168 C130.745964,20.0509137 131.367437,20.5290102 132.753756,20.5290102 C133.455,20.5290102 134.123731,20.4654061 134.666142,19.9393401 C134.952893,19.6687563 135.096269,19.1906599 135.096269,18.4739594 L135.096269,17.4859645 L135.096269,17.4859645 Z M135.096269,21.1504822 L135.096269,20.3856345 C134.442995,21.0389086 133.83698,21.2458883 132.753756,21.2458883 C131.622386,21.2458883 130.985279,21.0550761 130.491015,20.5451777 C130.14066,20.1786548 129.933147,19.6207868 129.933147,19.0474619 C129.933147,17.6449746 130.93731,16.8326904 132.610381,16.8326904 L135.096269,16.8326904 L135.096269,15.9719036 C135.096269,14.7451269 134.490254,14.0918528 132.928934,14.0918528 C131.845533,14.0918528 131.287665,14.3624365 130.809569,15.0636802 L130.220431,14.5537817 C130.873706,13.6455584 131.68599,13.3749746 132.928934,13.3749746 C134.952893,13.3749746 135.908376,14.283198 135.908376,15.892132 L135.908376,21.1504822 L135.096269,21.1504822 L135.096269,21.1504822 Z" id="Fill-41" fill="#DF592A" sketch:type="MSShapeGroup"></path>
            <path d="M140.655761,21.1504822 C139.444619,21.1504822 138.80698,20.3058629 138.80698,19.1426904 L138.80698,14.0756853 L137.755381,14.0756853 L137.755381,13.4703807 L138.80698,13.4703807 L138.80698,11.0162944 L139.619797,11.0162944 L139.619797,13.4703807 L141.356294,13.4703807 L141.356294,14.0756853 L139.619797,14.0756853 L139.619797,19.1590355 C139.619797,19.9555076 139.98632,20.4336041 140.799137,20.4336041 L141.356294,20.4336041 L141.356294,21.1504822 L140.655761,21.1504822" id="Fill-42" fill="#DF592A" sketch:type="MSShapeGroup"></path>
            <path d="M148.573934,21.1504822 L148.573934,16.3863959 C148.573934,14.9046701 147.824721,14.0918528 146.454569,14.0918528 C145.083883,14.0918528 144.287234,14.9364721 144.287234,16.3863959 L144.287234,21.1504822 L143.475127,21.1504822 L143.475127,9.80586294 L144.287234,9.80586294 L144.287234,14.3786041 C144.861447,13.7091624 145.625584,13.3749746 146.549975,13.3749746 C148.302817,13.3749746 149.386218,14.4740102 149.386218,16.2430203 L149.386218,21.1504822 L148.573934,21.1504822" id="Fill-43" fill="#F1B02C" sketch:type="MSShapeGroup"></path>
            <path d="M156.299695,14.7451269 C155.885736,14.3306345 155.327868,14.0918528 154.706396,14.0918528 C154.084924,14.0918528 153.527056,14.3306345 153.113096,14.7451269 C152.475457,15.3822335 152.42802,16.418198 152.42802,17.3102538 C152.42802,18.2028426 152.475457,19.2380964 153.113096,19.875736 C153.527056,20.2902284 154.084924,20.5290102 154.706396,20.5290102 C155.327868,20.5290102 155.885736,20.2902284 156.299695,19.875736 C156.937335,19.2380964 156.984594,18.2028426 156.984594,17.3102538 C156.984594,16.418198 156.937335,15.3822335 156.299695,14.7451269 L156.299695,14.7451269 Z M156.841218,20.401802 C156.299695,20.9435025 155.56665,21.2458883 154.706396,21.2458883 C153.846142,21.2458883 153.113096,20.9435025 152.571396,20.401802 C151.758579,19.5889848 151.615203,18.4096447 151.615203,17.3102538 C151.615203,16.2112183 151.758579,15.0318782 152.571396,14.2190609 C153.113096,13.6773604 153.846142,13.3749746 154.706396,13.3749746 C155.56665,13.3749746 156.299695,13.6773604 156.841218,14.2190609 C157.654036,15.0318782 157.797411,16.2112183 157.797411,17.3102538 C157.797411,18.4096447 157.654036,19.5889848 156.841218,20.401802 L156.841218,20.401802 Z" id="Fill-44" fill="#F1B02C" sketch:type="MSShapeGroup"></path>
            <path d="M170.320305,21.1504822 L170.320305,16.3863959 C170.320305,14.9046701 169.571091,14.0918528 168.200939,14.0918528 C166.878223,14.0918528 166.033604,14.9364721 166.033604,16.2430203 L166.033604,21.1504822 L165.22132,21.1504822 L165.22132,16.3863959 C165.22132,14.9046701 164.472107,14.0918528 163.102132,14.0918528 C161.731447,14.0918528 160.934797,14.9364721 160.934797,16.3863959 L160.934797,21.1504822 L160.122513,21.1504822 L160.122513,13.4703807 L160.934797,13.4703807 L160.934797,14.3786041 C161.492665,13.7253299 162.289315,13.3749746 163.213706,13.3749746 C164.345076,13.3749746 165.22132,13.8687056 165.683249,14.7769289 C166.256751,13.8687056 167.164975,13.3749746 168.296345,13.3749746 C169.140964,13.3749746 169.842208,13.6455584 170.320305,14.1074873 C170.830203,14.6017513 171.116954,15.334797 171.116954,16.2430203 L171.116954,21.1504822 L170.320305,21.1504822" id="Fill-45" fill="#F1B02C" sketch:type="MSShapeGroup"></path>
            <path d="M178.411878,15.3822335 C178.077157,14.5855838 177.296142,14.0918528 176.419721,14.0918528 C175.543299,14.0918528 174.762817,14.5855838 174.428096,15.3822335 C174.236751,15.8603299 174.189315,16.0996447 174.15769,16.8326904 L178.682462,16.8326904 C178.65066,16.0996447 178.60269,15.8603299 178.411878,15.3822335 L178.411878,15.3822335 Z M174.15769,17.4859645 C174.15769,19.4294416 175.033401,20.5133756 176.659036,20.5133756 C177.567259,20.5133756 178.125127,20.2422589 178.778401,19.5889848 L179.383706,20.0670812 C178.60269,20.8475635 177.885812,21.2458883 176.611066,21.2458883 C174.491701,21.2458883 173.344873,19.875736 173.344873,17.3102538 C173.344873,14.840533 174.491701,13.3749746 176.419721,13.3749746 C178.332107,13.3749746 179.495279,14.7769289 179.495279,17.1194416 L179.495279,17.4859645 L174.15769,17.4859645 L174.15769,17.4859645 Z" id="Fill-46" fill="#F1B02C" sketch:type="MSShapeGroup"></path>
            <path d="M187.985711,21.2458883 C185.898147,21.2458883 184.607766,19.7479949 184.607766,17.3102538 C184.607766,14.872335 185.898147,13.3749746 187.985711,13.3749746 C189.03731,13.3749746 189.690584,13.6455584 190.519569,14.5537817 L189.961701,15.0636802 C189.308426,14.3306345 188.798528,14.0918528 187.985711,14.0918528 C187.125457,14.0918528 186.408046,14.4422081 185.946117,15.1116497 C185.563959,15.6689848 185.420584,16.2748223 185.420584,17.3102538 C185.420584,18.3462183 185.563959,18.9513452 185.946117,19.5092132 C186.408046,20.1786548 187.125457,20.5290102 187.985711,20.5290102 C188.798528,20.5290102 189.308426,20.2902284 189.961701,19.5571827 L190.519569,20.0670812 C189.690584,20.9753046 189.03731,21.2458883 187.985711,21.2458883" id="Fill-48" fill="#CCCDC9" sketch:type="MSShapeGroup"></path>
            <path d="M196.588959,14.7451269 C196.175,14.3306345 195.617132,14.0918528 194.99566,14.0918528 C194.374188,14.0918528 193.81632,14.3306345 193.402538,14.7451269 C192.764898,15.3822335 192.717462,16.418198 192.717462,17.3102538 C192.717462,18.2028426 192.764898,19.2380964 193.402538,19.875736 C193.81632,20.2902284 194.374188,20.5290102 194.99566,20.5290102 C195.617132,20.5290102 196.175,20.2902284 196.588959,19.875736 C197.226599,19.2380964 197.274036,18.2028426 197.274036,17.3102538 C197.274036,16.418198 197.226599,15.3822335 196.588959,14.7451269 L196.588959,14.7451269 Z M197.13066,20.401802 C196.588959,20.9435025 195.855914,21.2458883 194.99566,21.2458883 C194.135584,21.2458883 193.402538,20.9435025 192.860838,20.401802 C192.04802,19.5889848 191.904645,18.4096447 191.904645,17.3102538 C191.904645,16.2112183 192.04802,15.0318782 192.860838,14.2190609 C193.402538,13.6773604 194.135584,13.3749746 194.99566,13.3749746 C195.855914,13.3749746 196.588959,13.6773604 197.13066,14.2190609 C197.943477,15.0318782 198.086853,16.2112183 198.086853,17.3102538 C198.086853,18.4096447 197.943477,19.5889848 197.13066,20.401802 L197.13066,20.401802 Z" id="Fill-49" fill="#CCCDC9" sketch:type="MSShapeGroup"></path>
            <path d="M210.609569,21.1504822 L210.609569,16.3863959 C210.609569,14.9046701 209.860355,14.0918528 208.490203,14.0918528 C207.167665,14.0918528 206.323046,14.9364721 206.323046,16.2430203 L206.323046,21.1504822 L205.510761,21.1504822 L205.510761,16.3863959 C205.510761,14.9046701 204.761548,14.0918528 203.391396,14.0918528 C202.020711,14.0918528 201.224061,14.9364721 201.224061,16.3863959 L201.224061,21.1504822 L200.411954,21.1504822 L200.411954,13.4703807 L201.224061,13.4703807 L201.224061,14.3786041 C201.781929,13.7253299 202.578579,13.3749746 203.50297,13.3749746 C204.63434,13.3749746 205.510761,13.8687056 205.97269,14.7769289 C206.546193,13.8687056 207.454239,13.3749746 208.585609,13.3749746 C209.430228,13.3749746 210.131472,13.6455584 210.609569,14.1074873 C211.119467,14.6017513 211.406218,15.334797 211.406218,16.2430203 L211.406218,21.1504822 L210.609569,21.1504822" id="Fill-50" fill="#CCCDC9" sketch:type="MSShapeGroup"></path>
        </g>
    </g>
</svg>