<?xml version="1.0" encoding="UTF-8" standalone="no"?>
<svg width="1190px" height="197px" viewBox="0 0 1190 197" version="1.1" xmlns="http://www.w3.org/2000/svg" xmlns:xlink="http://www.w3.org/1999/xlink" xmlns:sketch="http://www.bohemiancoding.com/sketch/ns">
    <!-- Generator: Sketch 3.3.3 (12081) - http://www.bohemiancoding.com/sketch -->
    <title>COU12001_logo_rgb</title>
    <desc>Created with Sketch.</desc>
    <defs></defs>
    <g id="Page-1" stroke="none" stroke-width="1" fill="none" fill-rule="evenodd" sketch:type="MSPage">
        <g id="COU12001_logo_rgb" sketch:type="MSLayerGroup">
            <path d="M153.149,103.491 C153.075,100.044 152.651,96.606 151.835,93.205 C151.761,92.901 151.637,92.629 151.552,92.332 C151.635,92.631 151.761,92.901 151.834,93.205 C152.65,96.606 153.075,100.044 153.149,103.491" id="Fill-1" fill="#36A1CE" sketch:type="MSShapeGroup"></path>
            <path d="M182.671,115.903 C182.372,118.064 182.019,120.226 181.554,122.387 C182.019,120.226 182.372,118.064 182.671,115.903" id="Fill-2" fill="#36A1CE" sketch:type="MSShapeGroup"></path>
            <path d="M151.217,118.394 C151.181,118.502 151.136,118.602 151.1,118.71 C151.137,118.603 151.18,118.502 151.217,118.394" id="Fill-3" fill="#36A1CE" sketch:type="MSShapeGroup"></path>
            <path d="M182.865,114.404 C183.393,110.014 183.564,105.628 183.367,101.251 C183.566,105.628 183.391,110.015 182.865,114.404" id="Fill-4" fill="#36A1CE" sketch:type="MSShapeGroup"></path>
            <path d="M182.627,93.367 L182.594,93.362 C182.639,93.672 182.68,93.982 182.721,94.292 C182.68,93.984 182.673,93.675 182.627,93.367" id="Fill-5" fill="#36A1CE" sketch:type="MSShapeGroup"></path>
            <path d="M181.055,124.394 C181.183,123.879 181.315,123.366 181.439,122.849 C181.323,123.371 181.173,123.876 181.045,124.391 L181.055,124.394" id="Fill-6" fill="#36A1CE" sketch:type="MSShapeGroup"></path>
            <path d="M182.721,94.292 C182.98,96.213 183.19,98.136 183.307,100.061 C183.191,98.135 182.98,96.213 182.721,94.292" id="Fill-7" fill="#36A1CE" sketch:type="MSShapeGroup"></path>
            <path d="M170.913,122.688 C163.742,122.582 156.568,122.633 149.395,122.634 C146.254,128.486 141.029,132.464 133.533,134.199 C129.975,135.022 126.256,135.439 122.602,135.501 C112.437,135.673 102.266,135.589 92.098,135.551 C84.457,135.523 77.108,136.942 70.005,139.732 C59.457,143.876 50.82,150.561 43.614,159.729 C36.348,154.097 32.022,146.91 31.679,138.068 C31.204,125.849 31.307,113.591 31.627,101.362 C32.017,86.445 41.816,76.253 56.751,75.151 C64.27,74.596 71.846,74.674 79.395,74.701 C79.916,74.703 80.437,74.703 80.959,74.704 L80.904,74.704 C79.235,64.479 79.464,54.254 81.827,44.125 C92.419,44.082 103.015,44.192 113.609,44.334 C112.705,46.074 111.936,47.917 111.45,49.942 C109.818,56.743 109.754,63.694 110.92,70.565 C111.177,72.08 111.541,73.502 111.971,74.867 L111.894,74.867 C117.52,74.935 123.145,75.028 128.768,75.203 C140.358,75.564 148.729,82.203 151.545,92.311 C158.092,92.328 164.64,92.312 171.187,92.288 C175.063,92.273 178.862,92.642 182.594,93.362 C182.144,90.305 181.528,87.253 180.68,84.213 C175.017,63.897 161.432,51.593 141.244,46.651 C135.027,45.129 128.459,44.518 122.041,44.443 C100.802,44.192 79.529,43.71 58.321,44.577 C35.632,45.504 17.507,55.15 6.998,76.34 C2.855,84.693 1.155,93.701 1.066,102.942 C0.946,115.446 0.606,127.991 1.398,140.452 C2.591,159.229 11.518,174.101 26.736,185.076 C36.686,192.252 47.907,195.928 60.209,196.182 C60.642,196.191 61.075,196.183 61.69,196.183 C62.66,179.496 73.217,170.208 83.36,167.288 C86.257,166.454 89.356,165.996 92.371,165.952 C97.291,165.878 102.212,165.9 107.134,165.92 C112.835,165.945 118.536,165.969 124.234,165.847 C140.178,165.505 154.708,161.083 166.569,149.874 C174.011,142.842 178.611,134.158 181.045,124.391 C180.671,124.266 180.298,124.132 179.925,124.025 C177.028,123.191 173.929,122.733 170.913,122.688" id="Fill-8" fill="#36A1CE" sketch:type="MSShapeGroup"></path>
            <path d="M176.426,92.502 C174.765,92.361 173.091,92.287 171.401,92.287 L171.294,92.287 L171.406,92.287 C171.753,92.287 172.099,92.29 172.445,92.297 L172.459,92.297 C172.479,92.297 172.5,92.297 172.52,92.298 L172.551,92.298 C172.566,92.299 172.582,92.299 172.597,92.299 C172.612,92.3 172.628,92.3 172.644,92.3 C172.654,92.3 172.663,92.301 172.673,92.301 C172.694,92.301 172.716,92.302 172.737,92.302 C172.741,92.302 172.746,92.303 172.75,92.303 C173.983,92.331 175.208,92.398 176.426,92.502" id="Fill-9" fill="#F7C02D" sketch:type="MSShapeGroup"></path>
            <path d="M176.959,92.55 C176.781,92.533 176.604,92.517 176.426,92.502 C175.208,92.398 173.983,92.331 172.75,92.303 C174.163,92.335 175.566,92.418 176.959,92.55 M172.737,92.302 C172.716,92.302 172.694,92.301 172.673,92.301 C172.695,92.301 172.716,92.302 172.737,92.302 M172.644,92.3 C172.628,92.3 172.612,92.3 172.597,92.299 C172.612,92.3 172.628,92.3 172.644,92.3 M172.551,92.298 L172.52,92.298 L172.551,92.298 M172.459,92.297 L172.445,92.297 L172.459,92.297" id="Fill-10" fill="#2BB8CE" sketch:type="MSShapeGroup"></path>
            <path d="M170.913,122.688 C167.285,122.634 163.655,122.621 160.026,122.621 L160.024,122.621 L160.019,122.621 C157.949,122.621 155.88,122.625 153.81,122.629 C155.886,122.625 157.962,122.62 160.038,122.62 C163.664,122.62 167.289,122.634 170.913,122.688" id="Fill-11" fill="#F7C02D" sketch:type="MSShapeGroup"></path>
            <path d="M149.41,122.634 L149.83,122.634 L149.41,122.634 M149.83,122.634 C151.156,122.633 152.484,122.631 153.81,122.629 C155.88,122.625 157.949,122.621 160.019,122.621 L160.024,122.621 C156.626,122.621 153.228,122.632 149.83,122.634" id="Fill-12" fill="#2BB8CE" sketch:type="MSShapeGroup"></path>
            <path d="M80.325,70.411 C80.281,70.018 80.243,69.625 80.207,69.233 C80.243,69.625 80.281,70.018 80.325,70.411 M80.207,69.233 C80.171,68.84 80.139,68.448 80.107,68.055 C80.139,68.448 80.172,68.84 80.207,69.233" id="Fill-13" fill="#F7C02D" sketch:type="MSShapeGroup"></path>
            <path d="M79.975,66.21 C79.946,65.734 79.921,65.258 79.9,64.782 C79.921,65.258 79.947,65.734 79.975,66.21 M79.9,64.782 C79.883,64.397 79.869,64.013 79.859,63.628 C79.869,64.013 79.883,64.397 79.9,64.782" id="Fill-14" fill="#F7C02D" sketch:type="MSShapeGroup"></path>
            <path d="M79.843,62.259 C79.81,58.941 79.988,55.629 80.386,52.323 C79.99,55.629 79.814,58.941 79.843,62.259 M80.386,52.323 C80.554,50.923 80.761,49.524 81.01,48.127 C80.762,49.524 80.554,50.923 80.386,52.323" id="Fill-15" fill="#F7C02D" sketch:type="MSShapeGroup"></path>
            <path d="M80.902,74.693 L80.902,74.693 C80.788,73.993 80.705,73.292 80.608,72.592 C80.705,73.292 80.788,73.993 80.902,74.693" id="Fill-16" fill="#F7C02D" sketch:type="MSShapeGroup"></path>
            <path d="M80.904,74.703 C80.903,74.7 80.902,74.697 80.902,74.693 C80.902,74.697 80.903,74.7 80.904,74.703" id="Fill-17" fill="#2BB8CE" sketch:type="MSShapeGroup"></path>
            <g id="Group-21" transform="translate(81.000000, 0.000000)" sketch:type="MSShapeGroup">
                <path d="M30.45,49.942 C30.706,48.874 31.048,47.862 31.44,46.884 C31.066,47.874 30.706,48.875 30.45,49.942" id="Fill-18" fill="#2BB8CE"></path>
                <path d="M121.593,152.923 C121.302,152.923 120.985,152.92 120.595,152.92 C119.661,136.852 109.838,127.662 100.055,124.394 C100.064,124.358 100.073,124.322 100.082,124.287 C100.241,123.655 100.415,123.031 100.554,122.39 C102.64,112.7 103.073,102.999 101.627,93.367 C105.24,94.067 108.791,95.098 112.28,96.469 C122.828,100.612 131.465,107.297 138.671,116.465 C145.937,110.833 150.263,103.646 150.606,94.804 C151.081,82.585 150.978,70.327 150.658,58.098 C150.268,43.181 140.468,32.989 125.534,31.887 C120.164,31.491 114.764,31.418 109.367,31.418 C107.207,31.418 105.047,31.43 102.89,31.437 C86.431,31.494 69.964,31.428 53.517,31.94 C43.85,32.24 36.454,36.935 32.609,44.334 C31.496,44.319 30.383,44.304 29.27,44.29 C21.067,44.181 12.862,44.081 4.66,44.081 C3.379,44.081 2.098,44.084 0.817,44.089 C1.053,43.041 1.313,41.994 1.604,40.949 C7.268,20.633 20.853,8.329 41.041,3.387 C47.257,1.866 53.825,1.255 60.243,1.179 C72.366,1.036 84.499,0.818 96.624,0.818 C105.744,0.818 114.86,0.941 123.964,1.314 C146.653,2.24 164.777,11.887 175.287,33.076 C179.43,41.43 181.13,50.437 181.219,59.678 C181.339,72.183 181.678,84.728 180.887,97.188 C179.694,115.966 170.766,130.837 155.549,141.813 C145.598,148.989 134.378,152.665 122.076,152.919 C121.918,152.922 121.76,152.923 121.593,152.923 M0.075,47.764 C0.154,47.326 0.237,46.888 0.322,46.451 C0.478,45.675 0.646,44.899 0.827,44.125 C2.41,44.118 3.994,44.115 5.577,44.115 C13.474,44.115 21.373,44.191 29.27,44.29 C21.373,44.191 13.474,44.115 5.577,44.115 C3.994,44.115 2.41,44.118 0.827,44.125 C0.544,45.336 0.297,46.549 0.075,47.764" id="Fill-20" fill="#F7C02D"></path>
            </g>
            <path d="M181.055,124.394 L181.055,124.394 C181.064,124.358 181.073,124.322 181.082,124.287 C181.073,124.322 181.064,124.358 181.055,124.394" id="Fill-22" fill="#2BB8CE" sketch:type="MSShapeGroup"></path>
            <path d="M81.322,46.451 C81.476,45.663 81.64,44.876 81.817,44.089 C83.098,44.084 84.379,44.081 85.66,44.081 C93.862,44.081 102.067,44.181 110.27,44.29 C102.373,44.191 94.474,44.115 86.577,44.115 C84.994,44.115 83.41,44.118 81.827,44.125 C81.646,44.899 81.478,45.675 81.322,46.451 M113.609,44.334 C112.496,44.319 111.383,44.304 110.27,44.29 C111.383,44.304 112.496,44.319 113.609,44.334" id="Fill-23" fill="#2BB8CE" sketch:type="MSShapeGroup"></path>
            <path d="M145.446,122.638 C143.314,122.638 141.181,122.629 139.05,122.583 C123.107,122.241 108.577,117.819 96.715,106.61 C88.764,99.097 84.013,89.72 81.731,79.126 C81.414,77.652 81.144,76.178 80.904,74.704 L80.959,74.704 L80.904,74.704 C91.259,74.736 101.617,74.742 111.971,74.867 L111.894,74.867 C111.919,74.867 111.945,74.868 111.971,74.868 C114.602,83.241 120.461,88.785 129.752,90.935 C133.31,91.759 137.028,92.175 140.683,92.237 C144.303,92.298 147.924,92.301 151.545,92.311 C151.558,92.357 151.572,92.403 151.586,92.448 C151.667,92.702 151.771,92.941 151.834,93.205 C152.136,94.461 152.384,95.722 152.58,96.987 C153.448,102.571 153.315,108.226 152.365,113.828 C151.804,117.138 150.781,120.05 149.395,122.634 C148.078,122.635 146.762,122.638 145.446,122.638 M151.168,118.528 C151.145,118.588 151.121,118.648 151.1,118.71 C151.121,118.648 151.145,118.589 151.168,118.528 C151.185,118.484 151.202,118.44 151.217,118.394 C151.201,118.44 151.185,118.484 151.168,118.528 M151.835,93.205 C151.827,93.172 151.818,93.14 151.809,93.108 C151.818,93.14 151.827,93.172 151.835,93.205 M151.809,93.106 C151.808,93.103 151.807,93.101 151.807,93.099 C151.807,93.101 151.808,93.103 151.809,93.106" id="Fill-24" fill="#F7C02D" sketch:type="MSShapeGroup"></path>
            <path d="M152.58,96.987 C152.384,95.722 152.136,94.461 151.834,93.205 C151.771,92.941 151.667,92.702 151.586,92.448 C151.657,92.667 151.744,92.876 151.807,93.099 C151.807,93.101 151.808,93.103 151.809,93.106 L151.809,93.108 C151.818,93.14 151.827,93.172 151.835,93.205 C152.136,94.461 152.384,95.722 152.58,96.987" id="Fill-25" fill="#2BB8CE" sketch:type="MSShapeGroup"></path>
            <path d="M151.1,118.71 C151.121,118.648 151.145,118.588 151.168,118.528 C151.145,118.589 151.121,118.648 151.1,118.71 M151.168,118.528 C151.185,118.484 151.201,118.44 151.217,118.394 C151.202,118.44 151.185,118.484 151.168,118.528" id="Fill-26" fill="#2BB8CE" sketch:type="MSShapeGroup"></path>
            <path d="M151.56,92.311 L151.545,92.311 L151.56,92.311 M111.971,74.868 C111.945,74.868 111.919,74.867 111.894,74.867 L111.971,74.867 M80.959,74.704 L80.904,74.704 L80.959,74.704" id="Fill-27" fill="#2BB8CE" sketch:type="MSShapeGroup"></path>
            <path d="M182.625,93.367 L182.625,93.367 C182.615,93.365 182.604,93.363 182.594,93.361 C182.604,93.363 182.615,93.365 182.625,93.367 M180.365,92.975 C179.261,92.806 178.151,92.668 177.036,92.561 C177.83,92.636 178.621,92.728 179.409,92.836 C179.728,92.88 180.047,92.926 180.365,92.975" id="Fill-28" fill="#F7C02D" sketch:type="MSShapeGroup"></path>
            <path d="M182.594,93.361 C181.853,93.218 181.11,93.089 180.365,92.975 C180.047,92.926 179.728,92.88 179.409,92.836 C180.476,92.982 181.538,93.157 182.594,93.361" id="Fill-29" fill="#2BB8CE" sketch:type="MSShapeGroup"></path>
            <path d="M151.545,92.311 C151.63,92.617 151.76,92.893 151.835,93.205 C153.466,100.007 153.53,106.958 152.365,113.828 C151.804,117.138 150.781,120.05 149.395,122.634 C156.568,122.633 163.742,122.582 170.913,122.688 C173.929,122.733 177.028,123.191 179.925,124.025 C180.301,124.133 180.678,124.268 181.055,124.394 C181.222,123.726 181.408,123.068 181.553,122.39 C183.64,112.7 184.073,102.999 182.627,93.367 C178.885,92.642 175.074,92.273 171.187,92.288 C164.64,92.312 158.092,92.329 151.545,92.311" id="Fill-52" fill="#DF592A" sketch:type="MSShapeGroup"></path>
            <path d="M113.609,44.333 C103.015,44.192 92.419,44.082 81.827,44.125 C79.464,54.254 79.235,64.478 80.904,74.704 C91.259,74.736 101.617,74.742 111.971,74.867 C111.541,73.502 111.177,72.08 110.92,70.565 C109.755,63.694 109.818,56.743 111.45,49.942 C111.936,47.917 112.705,46.074 113.609,44.333" id="Fill-53" fill="#DF592A" sketch:type="MSShapeGroup"></path>
            <path d="M1019.533,110.195 L1026.171,110.195 L1026.171,116.833 L1019.533,116.833 L1019.533,110.195 Z" id="Fill-47" fill="#CCCDC9" sketch:type="MSShapeGroup"></path>
            <path d="M317.798,117.37 C306.05,117.37 298.786,108.939 298.786,95.218 C298.786,81.496 306.05,73.068 317.798,73.068 C323.717,73.068 327.394,74.591 332.059,79.703 L328.92,82.573 C325.243,78.447 322.373,77.103 317.798,77.103 C312.955,77.103 308.92,79.075 306.319,82.843 C304.166,85.98 303.359,89.39 303.359,95.218 C303.359,101.049 304.166,104.455 306.319,107.595 C308.92,111.363 312.955,113.335 317.798,113.335 C322.373,113.335 325.243,111.991 328.92,107.865 L332.059,110.735 C327.394,115.847 323.717,117.37 317.798,117.37" id="Fill-30" fill="#36A1CE" sketch:type="MSShapeGroup"></path>
            <path d="M366.221,80.78 C363.889,78.447 360.751,77.103 357.253,77.103 C353.755,77.103 350.617,78.447 348.284,80.78 C344.696,84.366 344.428,90.197 344.428,95.218 C344.428,100.242 344.696,106.069 348.284,109.658 C350.617,111.991 353.755,113.335 357.253,113.335 C360.751,113.335 363.889,111.991 366.221,109.658 C369.808,106.069 370.078,100.242 370.078,95.218 C370.078,90.197 369.808,84.366 366.221,80.78 L366.221,80.78 Z M369.271,112.619 C366.221,115.668 362.097,117.37 357.253,117.37 C352.41,117.37 348.284,115.668 345.235,112.619 C340.662,108.044 339.855,101.406 339.855,95.218 C339.855,89.032 340.662,82.394 345.235,77.819 C348.284,74.77 352.41,73.068 357.253,73.068 C362.097,73.068 366.221,74.77 369.271,77.819 C373.845,82.394 374.652,89.032 374.652,95.218 C374.652,101.406 373.845,108.044 369.271,112.619 L369.271,112.619 Z" id="Fill-31" fill="#36A1CE" sketch:type="MSShapeGroup"></path>
            <path d="M415.896,116.833 L415.896,111.721 C412.668,115.489 408.363,117.37 403.162,117.37 C398.318,117.37 394.463,115.935 391.682,113.247 C388.812,110.465 387.197,106.339 387.197,101.227 L387.197,73.605 L391.772,73.605 L391.772,100.421 C391.772,108.76 395.987,113.335 403.699,113.335 C411.412,113.335 415.896,108.581 415.896,100.421 L415.896,73.605 L420.471,73.605 L420.471,116.833 L415.896,116.833" id="Fill-32" fill="#36A1CE" sketch:type="MSShapeGroup"></path>
            <path d="M464.766,116.833 L464.766,90.018 C464.766,81.678 460.55,77.103 452.837,77.103 C445.125,77.103 440.641,81.857 440.641,90.018 L440.641,116.833 L436.066,116.833 L436.066,73.605 L440.641,73.605 L440.641,78.717 C443.869,74.949 448.174,73.068 453.375,73.068 C458.219,73.068 462.075,74.5 464.855,77.191 C467.725,79.973 469.341,84.099 469.341,89.211 L469.341,116.833 L464.766,116.833" id="Fill-33" fill="#36A1CE" sketch:type="MSShapeGroup"></path>
            <path d="M497.672,117.37 C490.138,117.37 484.577,115.398 480.182,111.184 L483.322,108.044 C486.729,111.63 491.304,113.335 497.491,113.335 C505.922,113.335 510.495,110.377 510.495,104.546 C510.495,100.063 507.896,97.821 502.245,97.28 L495.07,96.652 C486.371,95.937 482.066,92.081 482.066,85.355 C482.066,77.91 488.164,73.068 497.581,73.068 C503.501,73.068 508.971,74.77 512.739,77.64 L509.688,80.689 C506.371,78.268 502.335,77.012 497.581,77.012 C490.497,77.012 486.55,80.061 486.55,85.355 C486.55,89.839 489.241,92.081 495.339,92.618 L502.335,93.246 C509.51,93.874 514.981,96.116 514.981,104.546 C514.981,112.437 508.253,117.37 497.672,117.37" id="Fill-34" fill="#36A1CE" sketch:type="MSShapeGroup"></path>
            <path d="M552.908,84.366 C551.026,79.882 546.631,77.103 541.698,77.103 C536.765,77.103 532.371,79.882 530.487,84.366 C529.412,87.057 529.141,88.404 528.963,92.53 L554.432,92.53 C554.253,88.404 553.985,87.057 552.908,84.366 L552.908,84.366 Z M528.963,96.207 C528.963,107.146 533.895,113.247 543.044,113.247 C548.156,113.247 551.294,111.721 554.971,108.044 L558.379,110.735 C553.985,115.128 549.948,117.37 542.774,117.37 C530.847,117.37 524.389,109.658 524.389,95.218 C524.389,81.317 530.847,73.068 541.698,73.068 C552.46,73.068 559.007,80.959 559.007,94.144 L559.007,96.207 L528.963,96.207 L528.963,96.207 Z" id="Fill-35" fill="#36A1CE" sketch:type="MSShapeGroup"></path>
            <path d="M582.227,116.833 C575.233,116.833 571.824,112.349 571.824,105.624 L571.824,52.979 L576.397,52.979 L576.397,105.532 C576.397,110.377 577.922,112.798 583.034,112.798 L586.174,112.798 L586.174,116.833 L582.227,116.833" id="Fill-36" fill="#36A1CE" sketch:type="MSShapeGroup"></path>
            <path d="M606.167,116.833 C599.173,116.833 595.764,112.349 595.764,105.624 L595.764,52.979 L600.338,52.979 L600.338,105.532 C600.338,110.377 601.862,112.798 606.976,112.798 L610.114,112.798 L610.114,116.833 L606.167,116.833" id="Fill-37" fill="#36A1CE" sketch:type="MSShapeGroup"></path>
            <path d="M619.884,73.605 L624.459,73.605 L624.459,116.833 L619.884,116.833 L619.884,73.605 Z M619.345,52.979 L624.995,52.979 L624.995,58.628 L619.345,58.628 L619.345,52.979 Z" id="Fill-38" fill="#36A1CE" sketch:type="MSShapeGroup"></path>
            <path d="M668.758,116.833 L668.758,90.018 C668.758,81.678 664.543,77.103 656.831,77.103 C649.118,77.103 644.632,81.857 644.632,90.018 L644.632,116.833 L640.059,116.833 L640.059,73.605 L644.632,73.605 L644.632,78.717 C647.862,74.949 652.167,73.068 657.368,73.068 C662.212,73.068 666.067,74.5 668.848,77.191 C671.718,79.973 673.332,84.099 673.332,89.211 L673.332,116.833 L668.758,116.833" id="Fill-39" fill="#36A1CE" sketch:type="MSShapeGroup"></path>
            <path d="M702.652,77.103 C692.067,77.103 690.453,86.25 690.453,95.218 C690.453,104.189 692.067,113.335 702.652,113.335 C713.234,113.335 714.848,104.189 714.848,95.218 C714.848,86.25 713.234,77.103 702.652,77.103 L702.652,77.103 Z M701.754,138 C695.295,138 692.067,136.295 687.494,132.26 L690.543,129.211 C693.951,132.26 696.284,133.962 701.754,133.962 C710.813,133.962 714.848,127.506 714.848,118.987 L714.848,111.272 C711.08,116.296 706.866,117.37 702.024,117.37 C697.537,117.37 693.681,115.847 691.439,113.605 C687.045,109.209 685.88,102.034 685.88,95.218 C685.88,88.404 687.045,81.229 691.439,76.833 C693.681,74.591 697.537,73.068 702.024,73.068 C706.866,73.068 711.08,74.142 714.848,79.166 L714.848,73.605 L719.423,73.605 L719.423,119.254 C719.423,130.106 712.964,138 701.754,138 L701.754,138 Z" id="Fill-40" fill="#36A1CE" sketch:type="MSShapeGroup"></path>
            <path d="M760.399,96.207 L746.944,96.207 C739.502,96.207 735.913,99.164 735.913,104.904 C735.913,110.644 739.411,113.335 747.214,113.335 C751.161,113.335 754.925,112.977 757.978,110.016 C759.592,108.493 760.399,105.802 760.399,101.768 L760.399,96.207 L760.399,96.207 Z M760.399,116.833 L760.399,112.528 C756.722,116.205 753.311,117.37 747.214,117.37 C740.846,117.37 737.26,116.296 734.478,113.426 C732.506,111.363 731.338,108.223 731.338,104.996 C731.338,97.102 736.99,92.53 746.407,92.53 L760.399,92.53 L760.399,87.685 C760.399,80.78 756.988,77.103 748.2,77.103 C742.102,77.103 738.962,78.626 736.271,82.573 L732.955,79.703 C736.632,74.591 741.204,73.068 748.2,73.068 C759.592,73.068 764.97,78.18 764.97,87.236 L764.97,116.833 L760.399,116.833 L760.399,116.833 Z" id="Fill-41" fill="#DF592A" sketch:type="MSShapeGroup"></path>
            <path d="M791.691,116.833 C784.874,116.833 781.285,112.079 781.285,105.532 L781.285,77.012 L775.366,77.012 L775.366,73.605 L781.285,73.605 L781.285,59.792 L785.86,59.792 L785.86,73.605 L795.634,73.605 L795.634,77.012 L785.86,77.012 L785.86,105.624 C785.86,110.107 787.923,112.798 792.498,112.798 L795.634,112.798 L795.634,116.833 L791.691,116.833" id="Fill-42" fill="#DF592A" sketch:type="MSShapeGroup"></path>
            <path d="M836.259,116.833 L836.259,90.018 C836.259,81.678 832.042,77.103 824.33,77.103 C816.615,77.103 812.131,81.857 812.131,90.018 L812.131,116.833 L807.56,116.833 L807.56,52.979 L812.131,52.979 L812.131,78.717 C815.363,74.949 819.664,73.068 824.867,73.068 C834.733,73.068 840.831,79.254 840.831,89.211 L840.831,116.833 L836.259,116.833" id="Fill-43" fill="#F1B02C" sketch:type="MSShapeGroup"></path>
            <path d="M879.744,80.78 C877.414,78.447 874.274,77.103 870.776,77.103 C867.278,77.103 864.138,78.447 861.808,80.78 C858.219,84.366 857.952,90.197 857.952,95.218 C857.952,100.242 858.219,106.069 861.808,109.658 C864.138,111.991 867.278,113.335 870.776,113.335 C874.274,113.335 877.414,111.991 879.744,109.658 C883.333,106.069 883.599,100.242 883.599,95.218 C883.599,90.197 883.333,84.366 879.744,80.78 L879.744,80.78 Z M882.792,112.619 C879.744,115.668 875.618,117.37 870.776,117.37 C865.934,117.37 861.808,115.668 858.759,112.619 C854.184,108.044 853.377,101.406 853.377,95.218 C853.377,89.032 854.184,82.394 858.759,77.819 C861.808,74.77 865.934,73.068 870.776,73.068 C875.618,73.068 879.744,74.77 882.792,77.819 C887.367,82.394 888.174,89.032 888.174,95.218 C888.174,101.406 887.367,108.044 882.792,112.619 L882.792,112.619 Z" id="Fill-44" fill="#F1B02C" sketch:type="MSShapeGroup"></path>
            <path d="M958.66,116.833 L958.66,90.018 C958.66,81.678 954.443,77.103 946.731,77.103 C939.286,77.103 934.532,81.857 934.532,89.211 L934.532,116.833 L929.96,116.833 L929.96,90.018 C929.96,81.678 925.743,77.103 918.032,77.103 C910.317,77.103 905.833,81.857 905.833,90.018 L905.833,116.833 L901.261,116.833 L901.261,73.605 L905.833,73.605 L905.833,78.717 C908.973,75.04 913.457,73.068 918.66,73.068 C925.028,73.068 929.96,75.847 932.56,80.959 C935.788,75.847 940.9,73.068 947.268,73.068 C952.022,73.068 955.969,74.591 958.66,77.191 C961.53,79.973 963.144,84.099 963.144,89.211 L963.144,116.833 L958.66,116.833" id="Fill-45" fill="#F1B02C" sketch:type="MSShapeGroup"></path>
            <path d="M1004.204,84.366 C1002.32,79.882 997.924,77.103 992.991,77.103 C988.058,77.103 983.665,79.882 981.781,84.366 C980.704,87.057 980.437,88.404 980.259,92.53 L1005.727,92.53 C1005.548,88.404 1005.278,87.057 1004.204,84.366 L1004.204,84.366 Z M980.259,96.207 C980.259,107.146 985.188,113.247 994.338,113.247 C999.45,113.247 1002.59,111.721 1006.267,108.044 L1009.674,110.735 C1005.278,115.128 1001.243,117.37 994.068,117.37 C982.139,117.37 975.684,109.658 975.684,95.218 C975.684,81.317 982.139,73.068 992.991,73.068 C1003.755,73.068 1010.302,80.959 1010.302,94.144 L1010.302,96.207 L980.259,96.207 L980.259,96.207 Z" id="Fill-46" fill="#F1B02C" sketch:type="MSShapeGroup"></path>
            <path d="M1058.091,117.37 C1046.341,117.37 1039.078,108.939 1039.078,95.218 C1039.078,81.496 1046.341,73.068 1058.091,73.068 C1064.01,73.068 1067.687,74.591 1072.353,79.703 L1069.213,82.573 C1065.536,78.447 1062.666,77.103 1058.091,77.103 C1053.249,77.103 1049.211,79.075 1046.611,82.843 C1044.46,85.98 1043.653,89.39 1043.653,95.218 C1043.653,101.049 1044.46,104.455 1046.611,107.595 C1049.211,111.363 1053.249,113.335 1058.091,113.335 C1062.666,113.335 1065.536,111.991 1069.213,107.865 L1072.353,110.735 C1067.687,115.847 1064.01,117.37 1058.091,117.37" id="Fill-48" fill="#CCCDC9" sketch:type="MSShapeGroup"></path>
            <path d="M1106.515,80.78 C1104.185,78.447 1101.045,77.103 1097.547,77.103 C1094.049,77.103 1090.909,78.447 1088.58,80.78 C1084.991,84.366 1084.724,90.197 1084.724,95.218 C1084.724,100.242 1084.991,106.069 1088.58,109.658 C1090.909,111.991 1094.049,113.335 1097.547,113.335 C1101.045,113.335 1104.185,111.991 1106.515,109.658 C1110.104,106.069 1110.371,100.242 1110.371,95.218 C1110.371,90.197 1110.104,84.366 1106.515,80.78 L1106.515,80.78 Z M1109.564,112.619 C1106.515,115.668 1102.389,117.37 1097.547,117.37 C1092.706,117.37 1088.58,115.668 1085.531,112.619 C1080.956,108.044 1080.149,101.406 1080.149,95.218 C1080.149,89.032 1080.956,82.394 1085.531,77.819 C1088.58,74.77 1092.706,73.068 1097.547,73.068 C1102.389,73.068 1106.515,74.77 1109.564,77.819 C1114.139,82.394 1114.946,89.032 1114.946,95.218 C1114.946,101.406 1114.139,108.044 1109.564,112.619 L1109.564,112.619 Z" id="Fill-49" fill="#CCCDC9" sketch:type="MSShapeGroup"></path>
            <path d="M1185.431,116.833 L1185.431,90.018 C1185.431,81.678 1181.214,77.103 1173.502,77.103 C1166.058,77.103 1161.304,81.857 1161.304,89.211 L1161.304,116.833 L1156.732,116.833 L1156.732,90.018 C1156.732,81.678 1152.515,77.103 1144.803,77.103 C1137.088,77.103 1132.604,81.857 1132.604,90.018 L1132.604,116.833 L1128.033,116.833 L1128.033,73.605 L1132.604,73.605 L1132.604,78.717 C1135.744,75.04 1140.228,73.068 1145.431,73.068 C1151.799,73.068 1156.732,75.847 1159.332,80.959 C1162.56,75.847 1167.671,73.068 1174.039,73.068 C1178.793,73.068 1182.74,74.591 1185.431,77.191 C1188.301,79.973 1189.915,84.099 1189.915,89.211 L1189.915,116.833 L1185.431,116.833" id="Fill-50" fill="#CCCDC9" sketch:type="MSShapeGroup"></path>
        </g>
    </g>
</svg>